%TF.GenerationSoftware,KiCad,Pcbnew,9.0.2*%
%TF.CreationDate,2026-03-05T14:56:42+01:00*%
%TF.ProjectId,Lum_a,4c756de9-612e-46b6-9963-61645f706362,rev?*%
%TF.SameCoordinates,Original*%
%TF.FileFunction,Soldermask,Bot*%
%TF.FilePolarity,Negative*%
%FSLAX46Y46*%
G04 Gerber Fmt 4.6, Leading zero omitted, Abs format (unit mm)*
G04 Created by KiCad (PCBNEW 9.0.2) date 2026-03-05 14:56:42*
%MOMM*%
%LPD*%
G01*
G04 APERTURE LIST*
G04 Aperture macros list*
%AMRoundRect*
0 Rectangle with rounded corners*
0 $1 Rounding radius*
0 $2 $3 $4 $5 $6 $7 $8 $9 X,Y pos of 4 corners*
0 Add a 4 corners polygon primitive as box body*
4,1,4,$2,$3,$4,$5,$6,$7,$8,$9,$2,$3,0*
0 Add four circle primitives for the rounded corners*
1,1,$1+$1,$2,$3*
1,1,$1+$1,$4,$5*
1,1,$1+$1,$6,$7*
1,1,$1+$1,$8,$9*
0 Add four rect primitives between the rounded corners*
20,1,$1+$1,$2,$3,$4,$5,0*
20,1,$1+$1,$4,$5,$6,$7,0*
20,1,$1+$1,$6,$7,$8,$9,0*
20,1,$1+$1,$8,$9,$2,$3,0*%
G04 Aperture macros list end*
%ADD10C,0.150000*%
%ADD11O,1.600000X2.600000*%
%ADD12RoundRect,0.250000X0.550000X-1.050000X0.550000X1.050000X-0.550000X1.050000X-0.550000X-1.050000X0*%
%ADD13C,2.100000*%
%ADD14RoundRect,0.250000X-0.550000X-0.550000X0.550000X-0.550000X0.550000X0.550000X-0.550000X0.550000X0*%
%ADD15C,1.600000*%
%ADD16RoundRect,0.250001X-0.799999X-0.799999X0.799999X-0.799999X0.799999X0.799999X-0.799999X0.799999X0*%
%ADD17C,2.000000*%
%ADD18RoundRect,0.250001X0.799999X-0.799999X0.799999X0.799999X-0.799999X0.799999X-0.799999X-0.799999X0*%
%ADD19RoundRect,0.250001X-0.949999X-0.949999X0.949999X-0.949999X0.949999X0.949999X-0.949999X0.949999X0*%
%ADD20C,2.400000*%
%ADD21R,1.500000X2.500000*%
%ADD22O,1.500000X2.500000*%
%ADD23R,1.700000X1.700000*%
%ADD24C,1.700000*%
%ADD25RoundRect,0.250000X-0.625000X0.400000X-0.625000X-0.400000X0.625000X-0.400000X0.625000X0.400000X0*%
%ADD26RoundRect,0.150000X0.825000X0.150000X-0.825000X0.150000X-0.825000X-0.150000X0.825000X-0.150000X0*%
%ADD27RoundRect,0.249999X-1.075001X0.450001X-1.075001X-0.450001X1.075001X-0.450001X1.075001X0.450001X0*%
%ADD28R,2.000000X2.000000*%
%ADD29RoundRect,0.250000X0.625000X-0.400000X0.625000X0.400000X-0.625000X0.400000X-0.625000X-0.400000X0*%
%ADD30RoundRect,0.250000X0.400000X0.625000X-0.400000X0.625000X-0.400000X-0.625000X0.400000X-0.625000X0*%
%ADD31RoundRect,0.250000X0.325000X0.650000X-0.325000X0.650000X-0.325000X-0.650000X0.325000X-0.650000X0*%
%ADD32RoundRect,0.250000X-0.400000X-0.625000X0.400000X-0.625000X0.400000X0.625000X-0.400000X0.625000X0*%
%ADD33RoundRect,0.249999X-0.450001X-1.075001X0.450001X-1.075001X0.450001X1.075001X-0.450001X1.075001X0*%
%ADD34RoundRect,0.250000X1.000000X0.650000X-1.000000X0.650000X-1.000000X-0.650000X1.000000X-0.650000X0*%
%ADD35RoundRect,0.150000X-0.825000X-0.150000X0.825000X-0.150000X0.825000X0.150000X-0.825000X0.150000X0*%
%ADD36RoundRect,0.225000X0.225000X0.375000X-0.225000X0.375000X-0.225000X-0.375000X0.225000X-0.375000X0*%
G04 APERTURE END LIST*
D10*
X184163220Y-99259875D02*
X184163220Y-98259875D01*
X184163220Y-98259875D02*
X183782268Y-98259875D01*
X183782268Y-98259875D02*
X183687030Y-98307494D01*
X183687030Y-98307494D02*
X183639411Y-98355113D01*
X183639411Y-98355113D02*
X183591792Y-98450351D01*
X183591792Y-98450351D02*
X183591792Y-98593208D01*
X183591792Y-98593208D02*
X183639411Y-98688446D01*
X183639411Y-98688446D02*
X183687030Y-98736065D01*
X183687030Y-98736065D02*
X183782268Y-98783684D01*
X183782268Y-98783684D02*
X184163220Y-98783684D01*
X183163220Y-99259875D02*
X183163220Y-98593208D01*
X183163220Y-98783684D02*
X183115601Y-98688446D01*
X183115601Y-98688446D02*
X183067982Y-98640827D01*
X183067982Y-98640827D02*
X182972744Y-98593208D01*
X182972744Y-98593208D02*
X182877506Y-98593208D01*
X182401315Y-99259875D02*
X182496553Y-99212256D01*
X182496553Y-99212256D02*
X182544172Y-99164636D01*
X182544172Y-99164636D02*
X182591791Y-99069398D01*
X182591791Y-99069398D02*
X182591791Y-98783684D01*
X182591791Y-98783684D02*
X182544172Y-98688446D01*
X182544172Y-98688446D02*
X182496553Y-98640827D01*
X182496553Y-98640827D02*
X182401315Y-98593208D01*
X182401315Y-98593208D02*
X182258458Y-98593208D01*
X182258458Y-98593208D02*
X182163220Y-98640827D01*
X182163220Y-98640827D02*
X182115601Y-98688446D01*
X182115601Y-98688446D02*
X182067982Y-98783684D01*
X182067982Y-98783684D02*
X182067982Y-99069398D01*
X182067982Y-99069398D02*
X182115601Y-99164636D01*
X182115601Y-99164636D02*
X182163220Y-99212256D01*
X182163220Y-99212256D02*
X182258458Y-99259875D01*
X182258458Y-99259875D02*
X182401315Y-99259875D01*
X181639410Y-98593208D02*
X181639410Y-99450351D01*
X181639410Y-99450351D02*
X181687029Y-99545589D01*
X181687029Y-99545589D02*
X181782267Y-99593208D01*
X181782267Y-99593208D02*
X181829886Y-99593208D01*
X181639410Y-98259875D02*
X181687029Y-98307494D01*
X181687029Y-98307494D02*
X181639410Y-98355113D01*
X181639410Y-98355113D02*
X181591791Y-98307494D01*
X181591791Y-98307494D02*
X181639410Y-98259875D01*
X181639410Y-98259875D02*
X181639410Y-98355113D01*
X180782268Y-99212256D02*
X180877506Y-99259875D01*
X180877506Y-99259875D02*
X181067982Y-99259875D01*
X181067982Y-99259875D02*
X181163220Y-99212256D01*
X181163220Y-99212256D02*
X181210839Y-99117017D01*
X181210839Y-99117017D02*
X181210839Y-98736065D01*
X181210839Y-98736065D02*
X181163220Y-98640827D01*
X181163220Y-98640827D02*
X181067982Y-98593208D01*
X181067982Y-98593208D02*
X180877506Y-98593208D01*
X180877506Y-98593208D02*
X180782268Y-98640827D01*
X180782268Y-98640827D02*
X180734649Y-98736065D01*
X180734649Y-98736065D02*
X180734649Y-98831303D01*
X180734649Y-98831303D02*
X181210839Y-98926541D01*
X180448934Y-98593208D02*
X180067982Y-98593208D01*
X180306077Y-98259875D02*
X180306077Y-99117017D01*
X180306077Y-99117017D02*
X180258458Y-99212256D01*
X180258458Y-99212256D02*
X180163220Y-99259875D01*
X180163220Y-99259875D02*
X180067982Y-99259875D01*
X178496553Y-99259875D02*
X178972743Y-99259875D01*
X178972743Y-99259875D02*
X178972743Y-98259875D01*
X178163219Y-98259875D02*
X178163219Y-99069398D01*
X178163219Y-99069398D02*
X178115600Y-99164636D01*
X178115600Y-99164636D02*
X178067981Y-99212256D01*
X178067981Y-99212256D02*
X177972743Y-99259875D01*
X177972743Y-99259875D02*
X177782267Y-99259875D01*
X177782267Y-99259875D02*
X177687029Y-99212256D01*
X177687029Y-99212256D02*
X177639410Y-99164636D01*
X177639410Y-99164636D02*
X177591791Y-99069398D01*
X177591791Y-99069398D02*
X177591791Y-98259875D01*
X177115600Y-99259875D02*
X177115600Y-98259875D01*
X177115600Y-98259875D02*
X176782267Y-98974160D01*
X176782267Y-98974160D02*
X176448934Y-98259875D01*
X176448934Y-98259875D02*
X176448934Y-99259875D01*
X175972743Y-98736065D02*
X175639410Y-98736065D01*
X175496553Y-99259875D02*
X175972743Y-99259875D01*
X175972743Y-99259875D02*
X175972743Y-98259875D01*
X175972743Y-98259875D02*
X175496553Y-98259875D01*
X175115600Y-98974160D02*
X174639410Y-98974160D01*
X175210838Y-99259875D02*
X174877505Y-98259875D01*
X174877505Y-98259875D02*
X174544172Y-99259875D01*
X184210839Y-100584104D02*
X183734649Y-100584104D01*
X184306077Y-100869819D02*
X183972744Y-99869819D01*
X183972744Y-99869819D02*
X183639411Y-100869819D01*
X182877506Y-100869819D02*
X182877506Y-99869819D01*
X182877506Y-100822200D02*
X182972744Y-100869819D01*
X182972744Y-100869819D02*
X183163220Y-100869819D01*
X183163220Y-100869819D02*
X183258458Y-100822200D01*
X183258458Y-100822200D02*
X183306077Y-100774580D01*
X183306077Y-100774580D02*
X183353696Y-100679342D01*
X183353696Y-100679342D02*
X183353696Y-100393628D01*
X183353696Y-100393628D02*
X183306077Y-100298390D01*
X183306077Y-100298390D02*
X183258458Y-100250771D01*
X183258458Y-100250771D02*
X183163220Y-100203152D01*
X183163220Y-100203152D02*
X182972744Y-100203152D01*
X182972744Y-100203152D02*
X182877506Y-100250771D01*
X182401315Y-100869819D02*
X182401315Y-100203152D01*
X182401315Y-100393628D02*
X182353696Y-100298390D01*
X182353696Y-100298390D02*
X182306077Y-100250771D01*
X182306077Y-100250771D02*
X182210839Y-100203152D01*
X182210839Y-100203152D02*
X182115601Y-100203152D01*
X181782267Y-100869819D02*
X181782267Y-100203152D01*
X181782267Y-99869819D02*
X181829886Y-99917438D01*
X181829886Y-99917438D02*
X181782267Y-99965057D01*
X181782267Y-99965057D02*
X181734648Y-99917438D01*
X181734648Y-99917438D02*
X181782267Y-99869819D01*
X181782267Y-99869819D02*
X181782267Y-99965057D01*
X180925125Y-100822200D02*
X181020363Y-100869819D01*
X181020363Y-100869819D02*
X181210839Y-100869819D01*
X181210839Y-100869819D02*
X181306077Y-100822200D01*
X181306077Y-100822200D02*
X181353696Y-100726961D01*
X181353696Y-100726961D02*
X181353696Y-100346009D01*
X181353696Y-100346009D02*
X181306077Y-100250771D01*
X181306077Y-100250771D02*
X181210839Y-100203152D01*
X181210839Y-100203152D02*
X181020363Y-100203152D01*
X181020363Y-100203152D02*
X180925125Y-100250771D01*
X180925125Y-100250771D02*
X180877506Y-100346009D01*
X180877506Y-100346009D02*
X180877506Y-100441247D01*
X180877506Y-100441247D02*
X181353696Y-100536485D01*
X180448934Y-100203152D02*
X180448934Y-100869819D01*
X180448934Y-100298390D02*
X180401315Y-100250771D01*
X180401315Y-100250771D02*
X180306077Y-100203152D01*
X180306077Y-100203152D02*
X180163220Y-100203152D01*
X180163220Y-100203152D02*
X180067982Y-100250771D01*
X180067982Y-100250771D02*
X180020363Y-100346009D01*
X180020363Y-100346009D02*
X180020363Y-100869819D01*
X178448934Y-100346009D02*
X178306077Y-100393628D01*
X178306077Y-100393628D02*
X178258458Y-100441247D01*
X178258458Y-100441247D02*
X178210839Y-100536485D01*
X178210839Y-100536485D02*
X178210839Y-100679342D01*
X178210839Y-100679342D02*
X178258458Y-100774580D01*
X178258458Y-100774580D02*
X178306077Y-100822200D01*
X178306077Y-100822200D02*
X178401315Y-100869819D01*
X178401315Y-100869819D02*
X178782267Y-100869819D01*
X178782267Y-100869819D02*
X178782267Y-99869819D01*
X178782267Y-99869819D02*
X178448934Y-99869819D01*
X178448934Y-99869819D02*
X178353696Y-99917438D01*
X178353696Y-99917438D02*
X178306077Y-99965057D01*
X178306077Y-99965057D02*
X178258458Y-100060295D01*
X178258458Y-100060295D02*
X178258458Y-100155533D01*
X178258458Y-100155533D02*
X178306077Y-100250771D01*
X178306077Y-100250771D02*
X178353696Y-100298390D01*
X178353696Y-100298390D02*
X178448934Y-100346009D01*
X178448934Y-100346009D02*
X178782267Y-100346009D01*
X177782267Y-100346009D02*
X177448934Y-100346009D01*
X177306077Y-100869819D02*
X177782267Y-100869819D01*
X177782267Y-100869819D02*
X177782267Y-99869819D01*
X177782267Y-99869819D02*
X177306077Y-99869819D01*
X176306077Y-100774580D02*
X176353696Y-100822200D01*
X176353696Y-100822200D02*
X176496553Y-100869819D01*
X176496553Y-100869819D02*
X176591791Y-100869819D01*
X176591791Y-100869819D02*
X176734648Y-100822200D01*
X176734648Y-100822200D02*
X176829886Y-100726961D01*
X176829886Y-100726961D02*
X176877505Y-100631723D01*
X176877505Y-100631723D02*
X176925124Y-100441247D01*
X176925124Y-100441247D02*
X176925124Y-100298390D01*
X176925124Y-100298390D02*
X176877505Y-100107914D01*
X176877505Y-100107914D02*
X176829886Y-100012676D01*
X176829886Y-100012676D02*
X176734648Y-99917438D01*
X176734648Y-99917438D02*
X176591791Y-99869819D01*
X176591791Y-99869819D02*
X176496553Y-99869819D01*
X176496553Y-99869819D02*
X176353696Y-99917438D01*
X176353696Y-99917438D02*
X176306077Y-99965057D01*
X175877505Y-100869819D02*
X175877505Y-99869819D01*
X175877505Y-100346009D02*
X175306077Y-100346009D01*
X175306077Y-100869819D02*
X175306077Y-99869819D01*
X174829886Y-99869819D02*
X174829886Y-100679342D01*
X174829886Y-100679342D02*
X174782267Y-100774580D01*
X174782267Y-100774580D02*
X174734648Y-100822200D01*
X174734648Y-100822200D02*
X174639410Y-100869819D01*
X174639410Y-100869819D02*
X174448934Y-100869819D01*
X174448934Y-100869819D02*
X174353696Y-100822200D01*
X174353696Y-100822200D02*
X174306077Y-100774580D01*
X174306077Y-100774580D02*
X174258458Y-100679342D01*
X174258458Y-100679342D02*
X174258458Y-99869819D01*
D11*
%TO.C,A1*%
X105610000Y-101032500D03*
X108150000Y-101032500D03*
X110690000Y-101032500D03*
X113230000Y-101032500D03*
X115770000Y-101032500D03*
X118310000Y-101032500D03*
X120850000Y-101032500D03*
X123390000Y-101032500D03*
X125930000Y-101032500D03*
X128470000Y-101032500D03*
X131010000Y-101032500D03*
X133550000Y-101032500D03*
X133550000Y-120752500D03*
X131010000Y-120752500D03*
X128470000Y-120752500D03*
X125930000Y-120752500D03*
X123390000Y-120752500D03*
X120850000Y-120752500D03*
X118310000Y-120752500D03*
X115770000Y-120752500D03*
X113230000Y-120752500D03*
X110690000Y-120752500D03*
X108150000Y-120752500D03*
X105610000Y-120752500D03*
X103070000Y-120752500D03*
X100530000Y-120752500D03*
X97990000Y-120752500D03*
D12*
X95450000Y-120752500D03*
%TD*%
D13*
%TO.C,REF\u002A\u002A3*%
X85000000Y-147500000D03*
%TD*%
%TO.C,REF\u002A\u002A2*%
X210000000Y-147500000D03*
%TD*%
%TO.C,REF\u002A\u002A1*%
X210000000Y-82500000D03*
%TD*%
%TO.C,REF\u002A\u002A*%
X85000000Y-82500000D03*
%TD*%
D14*
%TO.C,SW3*%
X88380000Y-140500000D03*
D15*
X88380000Y-143040000D03*
X96000000Y-143040000D03*
X96000000Y-140500000D03*
%TD*%
D14*
%TO.C,SW1*%
X109732500Y-143242500D03*
D15*
X109732500Y-145782500D03*
X117352500Y-145782500D03*
X117352500Y-143242500D03*
%TD*%
D16*
%TO.C,J3*%
X127960000Y-86000000D03*
D13*
X130500000Y-86000000D03*
%TD*%
D16*
%TO.C,J5*%
X162500000Y-88500000D03*
D13*
X165040000Y-88500000D03*
%TD*%
D17*
%TO.C,TP9*%
X101000000Y-93000000D03*
%TD*%
D18*
%TO.C,J10*%
X86000000Y-127040000D03*
D13*
X86000000Y-124500000D03*
%TD*%
D16*
%TO.C,J6*%
X119960000Y-126500000D03*
D13*
X122500000Y-126500000D03*
%TD*%
D17*
%TO.C,TP13*%
X162500000Y-128500000D03*
%TD*%
D19*
%TO.C,J11*%
X187000000Y-130500000D03*
D20*
X190500000Y-130500000D03*
X194000000Y-130500000D03*
X197500000Y-130500000D03*
%TD*%
D17*
%TO.C,TP3*%
X164500000Y-121000000D03*
%TD*%
D21*
%TO.C,U1*%
X148067500Y-89682500D03*
D22*
X150607500Y-89682500D03*
X153147500Y-89682500D03*
%TD*%
D16*
%TO.C,J1*%
X154960000Y-141500000D03*
D13*
X157500000Y-141500000D03*
%TD*%
D17*
%TO.C,TP1*%
X167500000Y-82500000D03*
%TD*%
%TO.C,TP12*%
X193500000Y-100500000D03*
%TD*%
D16*
%TO.C,J8*%
X163000000Y-141500000D03*
D13*
X165540000Y-141500000D03*
%TD*%
D23*
%TO.C,J12*%
X151500000Y-109460000D03*
D24*
X151500000Y-112000000D03*
X151500000Y-114540000D03*
X151500000Y-117080000D03*
%TD*%
D17*
%TO.C,TP4*%
X127000000Y-125500000D03*
%TD*%
D16*
%TO.C,J2*%
X112960000Y-86000000D03*
D13*
X115500000Y-86000000D03*
%TD*%
D23*
%TO.C,J13*%
X207540000Y-91180000D03*
D24*
X205000000Y-91180000D03*
X207540000Y-93720000D03*
X205000000Y-93720000D03*
X207540000Y-96260000D03*
X205000000Y-96260000D03*
X207540000Y-98800000D03*
X205000000Y-98800000D03*
X207540000Y-101340000D03*
X205000000Y-101340000D03*
X207540000Y-103880000D03*
X205000000Y-103880000D03*
X207540000Y-106420000D03*
X205000000Y-106420000D03*
X207540000Y-108960000D03*
X205000000Y-108960000D03*
X207540000Y-111500000D03*
X205000000Y-111500000D03*
X207540000Y-114040000D03*
X205000000Y-114040000D03*
X207540000Y-116580000D03*
X205000000Y-116580000D03*
X207540000Y-119120000D03*
X205000000Y-119120000D03*
X207540000Y-121660000D03*
X205000000Y-121660000D03*
X207540000Y-124200000D03*
X205000000Y-124200000D03*
X207540000Y-126740000D03*
X205000000Y-126740000D03*
X207540000Y-129280000D03*
X205000000Y-129280000D03*
X207540000Y-131820000D03*
X205000000Y-131820000D03*
X207540000Y-134360000D03*
X205000000Y-134360000D03*
X207540000Y-136900000D03*
X205000000Y-136900000D03*
X207540000Y-139440000D03*
X205000000Y-139440000D03*
%TD*%
D17*
%TO.C,TP6*%
X168000000Y-114000000D03*
%TD*%
%TO.C,TP7*%
X110000000Y-124500000D03*
%TD*%
%TO.C,TP10*%
X177500000Y-127500000D03*
%TD*%
D14*
%TO.C,SW2*%
X127732500Y-144742500D03*
D15*
X127732500Y-147282500D03*
X135352500Y-147282500D03*
X135352500Y-144742500D03*
%TD*%
D16*
%TO.C,J7*%
X120460000Y-86000000D03*
D13*
X123000000Y-86000000D03*
%TD*%
D16*
%TO.C,J4*%
X169460000Y-127500000D03*
D13*
X172000000Y-127500000D03*
%TD*%
D17*
%TO.C,TP11*%
X147500000Y-101000000D03*
%TD*%
D16*
%TO.C,J9*%
X103460000Y-142500000D03*
D13*
X106000000Y-142500000D03*
%TD*%
D17*
%TO.C,TP2*%
X195500000Y-94500000D03*
%TD*%
%TO.C,TP8*%
X102000000Y-126500000D03*
%TD*%
%TO.C,TP5*%
X130000000Y-92000000D03*
%TD*%
D25*
%TO.C,R1*%
X126500000Y-93900000D03*
X126500000Y-97000000D03*
%TD*%
D26*
%TO.C,U3*%
X115975000Y-134595000D03*
X115975000Y-135865000D03*
X115975000Y-137135000D03*
X115975000Y-138405000D03*
X111025000Y-138405000D03*
X111025000Y-137135000D03*
X111025000Y-135865000D03*
X111025000Y-134595000D03*
%TD*%
%TO.C,U2*%
X158475000Y-131095000D03*
X158475000Y-132365000D03*
X158475000Y-133635000D03*
X158475000Y-134905000D03*
X153525000Y-134905000D03*
X153525000Y-133635000D03*
X153525000Y-132365000D03*
X153525000Y-131095000D03*
%TD*%
D27*
%TO.C,R.Shunt3*%
X85500000Y-131200000D03*
X85500000Y-136000000D03*
%TD*%
D28*
%TO.C,TP17*%
X200500000Y-82000000D03*
%TD*%
D29*
%TO.C,R10*%
X121000000Y-135500000D03*
X121000000Y-132400000D03*
%TD*%
D28*
%TO.C,TP16*%
X131500000Y-125500000D03*
%TD*%
D30*
%TO.C,R8*%
X113535716Y-95500000D03*
X110435716Y-95500000D03*
%TD*%
D29*
%TO.C,R14*%
X98500000Y-143500000D03*
X98500000Y-140400000D03*
%TD*%
D31*
%TO.C,C4*%
X149975000Y-125500000D03*
X147025000Y-125500000D03*
%TD*%
D29*
%TO.C,R12*%
X147500000Y-138100000D03*
X147500000Y-135000000D03*
%TD*%
D32*
%TO.C,R2*%
X129900000Y-95000000D03*
X133000000Y-95000000D03*
%TD*%
D28*
%TO.C,TP23*%
X115000000Y-124500000D03*
%TD*%
D33*
%TO.C,R.Shunt2*%
X161700000Y-133000000D03*
X166500000Y-133000000D03*
%TD*%
D31*
%TO.C,C5*%
X183500000Y-90000000D03*
X180550000Y-90000000D03*
%TD*%
D34*
%TO.C,D1*%
X95000000Y-96000000D03*
X91000000Y-96000000D03*
%TD*%
D28*
%TO.C,TP18*%
X162000000Y-82500000D03*
%TD*%
%TO.C,TP14*%
X123000000Y-95500000D03*
%TD*%
D30*
%TO.C,R5*%
X115000000Y-127500000D03*
X111900000Y-127500000D03*
%TD*%
D34*
%TO.C,D2*%
X104000000Y-85500000D03*
X100000000Y-85500000D03*
%TD*%
D30*
%TO.C,R6*%
X109000000Y-127500000D03*
X105900000Y-127500000D03*
%TD*%
D31*
%TO.C,C3*%
X197450000Y-120000000D03*
X194500000Y-120000000D03*
%TD*%
D28*
%TO.C,TP26*%
X173500000Y-92500000D03*
%TD*%
%TO.C,TP15*%
X201500000Y-95000000D03*
%TD*%
%TO.C,TP25*%
X147500000Y-95500000D03*
%TD*%
D31*
%TO.C,C2*%
X148805000Y-132040000D03*
X145855000Y-132040000D03*
%TD*%
D30*
%TO.C,R15*%
X197500000Y-123500000D03*
X194400000Y-123500000D03*
%TD*%
%TO.C,R4*%
X164000000Y-100500000D03*
X160900000Y-100500000D03*
%TD*%
D26*
%TO.C,U5*%
X93475000Y-132095000D03*
X93475000Y-133365000D03*
X93475000Y-134635000D03*
X93475000Y-135905000D03*
X88525000Y-135905000D03*
X88525000Y-134635000D03*
X88525000Y-133365000D03*
X88525000Y-132095000D03*
%TD*%
D35*
%TO.C,U4*%
X129525000Y-140405000D03*
X129525000Y-139135000D03*
X129525000Y-137865000D03*
X129525000Y-136595000D03*
X134475000Y-136595000D03*
X134475000Y-137865000D03*
X134475000Y-139135000D03*
X134475000Y-140405000D03*
%TD*%
D30*
%TO.C,R3*%
X171000000Y-109000000D03*
X167900000Y-109000000D03*
%TD*%
D28*
%TO.C,TP19*%
X158000000Y-127500000D03*
%TD*%
%TO.C,TP21*%
X135500000Y-83000000D03*
%TD*%
D30*
%TO.C,R7*%
X120100000Y-95500000D03*
X117000000Y-95500000D03*
%TD*%
D28*
%TO.C,TP24*%
X137500000Y-95000000D03*
%TD*%
D30*
%TO.C,R16*%
X183500000Y-83760000D03*
X180400000Y-83760000D03*
%TD*%
%TO.C,R13*%
X94500000Y-127500000D03*
X91400000Y-127500000D03*
%TD*%
D28*
%TO.C,TP20*%
X96000000Y-85500000D03*
%TD*%
%TO.C,TP22*%
X171000000Y-105000000D03*
%TD*%
D31*
%TO.C,C1*%
X148805000Y-128690000D03*
X145855000Y-128690000D03*
%TD*%
D27*
%TO.C,R.Shunt1*%
X105000000Y-134000000D03*
X105000000Y-138800000D03*
%TD*%
D29*
%TO.C,R9*%
X127000000Y-135382000D03*
X127000000Y-132282000D03*
%TD*%
%TO.C,R11*%
X149450000Y-147000000D03*
X149450000Y-143900000D03*
%TD*%
D36*
%TO.C,D3*%
X104240716Y-88800000D03*
X100940716Y-88800000D03*
%TD*%
M02*
