%TF.GenerationSoftware,KiCad,Pcbnew,9.0.2*%
%TF.CreationDate,2026-03-05T14:56:42+01:00*%
%TF.ProjectId,Lum_a,4c756de9-612e-46b6-9963-61645f706362,rev?*%
%TF.SameCoordinates,Original*%
%TF.FileFunction,Legend,Top*%
%TF.FilePolarity,Positive*%
%FSLAX46Y46*%
G04 Gerber Fmt 4.6, Leading zero omitted, Abs format (unit mm)*
G04 Created by KiCad (PCBNEW 9.0.2) date 2026-03-05 14:56:42*
%MOMM*%
%LPD*%
G01*
G04 APERTURE LIST*
%ADD10C,0.150000*%
%ADD11C,0.120000*%
G04 APERTURE END LIST*
D10*
X87999104Y-111606785D02*
X87999104Y-111130595D01*
X88284819Y-111702023D02*
X87284819Y-111368690D01*
X87284819Y-111368690D02*
X88284819Y-111035357D01*
X88284819Y-110178214D02*
X88284819Y-110749642D01*
X88284819Y-110463928D02*
X87284819Y-110463928D01*
X87284819Y-110463928D02*
X87427676Y-110559166D01*
X87427676Y-110559166D02*
X87522914Y-110654404D01*
X87522914Y-110654404D02*
X87570533Y-110749642D01*
X85454819Y-144309524D02*
X84978628Y-144642857D01*
X85454819Y-144880952D02*
X84454819Y-144880952D01*
X84454819Y-144880952D02*
X84454819Y-144500000D01*
X84454819Y-144500000D02*
X84502438Y-144404762D01*
X84502438Y-144404762D02*
X84550057Y-144357143D01*
X84550057Y-144357143D02*
X84645295Y-144309524D01*
X84645295Y-144309524D02*
X84788152Y-144309524D01*
X84788152Y-144309524D02*
X84883390Y-144357143D01*
X84883390Y-144357143D02*
X84931009Y-144404762D01*
X84931009Y-144404762D02*
X84978628Y-144500000D01*
X84978628Y-144500000D02*
X84978628Y-144880952D01*
X84931009Y-143880952D02*
X84931009Y-143547619D01*
X85454819Y-143404762D02*
X85454819Y-143880952D01*
X85454819Y-143880952D02*
X84454819Y-143880952D01*
X84454819Y-143880952D02*
X84454819Y-143404762D01*
X84931009Y-142642857D02*
X84931009Y-142976190D01*
X85454819Y-142976190D02*
X84454819Y-142976190D01*
X84454819Y-142976190D02*
X84454819Y-142500000D01*
X84454819Y-141976190D02*
X84692914Y-141976190D01*
X84597676Y-142214285D02*
X84692914Y-141976190D01*
X84692914Y-141976190D02*
X84597676Y-141738095D01*
X84883390Y-142119047D02*
X84692914Y-141976190D01*
X84692914Y-141976190D02*
X84883390Y-141833333D01*
X84454819Y-141214285D02*
X84692914Y-141214285D01*
X84597676Y-141452380D02*
X84692914Y-141214285D01*
X84692914Y-141214285D02*
X84597676Y-140976190D01*
X84883390Y-141357142D02*
X84692914Y-141214285D01*
X84692914Y-141214285D02*
X84883390Y-141071428D01*
X84454819Y-140690475D02*
X84454819Y-140071428D01*
X84454819Y-140071428D02*
X84835771Y-140404761D01*
X84835771Y-140404761D02*
X84835771Y-140261904D01*
X84835771Y-140261904D02*
X84883390Y-140166666D01*
X84883390Y-140166666D02*
X84931009Y-140119047D01*
X84931009Y-140119047D02*
X85026247Y-140071428D01*
X85026247Y-140071428D02*
X85264342Y-140071428D01*
X85264342Y-140071428D02*
X85359580Y-140119047D01*
X85359580Y-140119047D02*
X85407200Y-140166666D01*
X85407200Y-140166666D02*
X85454819Y-140261904D01*
X85454819Y-140261904D02*
X85454819Y-140547618D01*
X85454819Y-140547618D02*
X85407200Y-140642856D01*
X85407200Y-140642856D02*
X85359580Y-140690475D01*
X208190475Y-144904819D02*
X207857142Y-144428628D01*
X207619047Y-144904819D02*
X207619047Y-143904819D01*
X207619047Y-143904819D02*
X207999999Y-143904819D01*
X207999999Y-143904819D02*
X208095237Y-143952438D01*
X208095237Y-143952438D02*
X208142856Y-144000057D01*
X208142856Y-144000057D02*
X208190475Y-144095295D01*
X208190475Y-144095295D02*
X208190475Y-144238152D01*
X208190475Y-144238152D02*
X208142856Y-144333390D01*
X208142856Y-144333390D02*
X208095237Y-144381009D01*
X208095237Y-144381009D02*
X207999999Y-144428628D01*
X207999999Y-144428628D02*
X207619047Y-144428628D01*
X208619047Y-144381009D02*
X208952380Y-144381009D01*
X209095237Y-144904819D02*
X208619047Y-144904819D01*
X208619047Y-144904819D02*
X208619047Y-143904819D01*
X208619047Y-143904819D02*
X209095237Y-143904819D01*
X209857142Y-144381009D02*
X209523809Y-144381009D01*
X209523809Y-144904819D02*
X209523809Y-143904819D01*
X209523809Y-143904819D02*
X209999999Y-143904819D01*
X210523809Y-143904819D02*
X210523809Y-144142914D01*
X210285714Y-144047676D02*
X210523809Y-144142914D01*
X210523809Y-144142914D02*
X210761904Y-144047676D01*
X210380952Y-144333390D02*
X210523809Y-144142914D01*
X210523809Y-144142914D02*
X210666666Y-144333390D01*
X211285714Y-143904819D02*
X211285714Y-144142914D01*
X211047619Y-144047676D02*
X211285714Y-144142914D01*
X211285714Y-144142914D02*
X211523809Y-144047676D01*
X211142857Y-144333390D02*
X211285714Y-144142914D01*
X211285714Y-144142914D02*
X211428571Y-144333390D01*
X211857143Y-144000057D02*
X211904762Y-143952438D01*
X211904762Y-143952438D02*
X212000000Y-143904819D01*
X212000000Y-143904819D02*
X212238095Y-143904819D01*
X212238095Y-143904819D02*
X212333333Y-143952438D01*
X212333333Y-143952438D02*
X212380952Y-144000057D01*
X212380952Y-144000057D02*
X212428571Y-144095295D01*
X212428571Y-144095295D02*
X212428571Y-144190533D01*
X212428571Y-144190533D02*
X212380952Y-144333390D01*
X212380952Y-144333390D02*
X211809524Y-144904819D01*
X211809524Y-144904819D02*
X212428571Y-144904819D01*
X208190475Y-79904819D02*
X207857142Y-79428628D01*
X207619047Y-79904819D02*
X207619047Y-78904819D01*
X207619047Y-78904819D02*
X207999999Y-78904819D01*
X207999999Y-78904819D02*
X208095237Y-78952438D01*
X208095237Y-78952438D02*
X208142856Y-79000057D01*
X208142856Y-79000057D02*
X208190475Y-79095295D01*
X208190475Y-79095295D02*
X208190475Y-79238152D01*
X208190475Y-79238152D02*
X208142856Y-79333390D01*
X208142856Y-79333390D02*
X208095237Y-79381009D01*
X208095237Y-79381009D02*
X207999999Y-79428628D01*
X207999999Y-79428628D02*
X207619047Y-79428628D01*
X208619047Y-79381009D02*
X208952380Y-79381009D01*
X209095237Y-79904819D02*
X208619047Y-79904819D01*
X208619047Y-79904819D02*
X208619047Y-78904819D01*
X208619047Y-78904819D02*
X209095237Y-78904819D01*
X209857142Y-79381009D02*
X209523809Y-79381009D01*
X209523809Y-79904819D02*
X209523809Y-78904819D01*
X209523809Y-78904819D02*
X209999999Y-78904819D01*
X210523809Y-78904819D02*
X210523809Y-79142914D01*
X210285714Y-79047676D02*
X210523809Y-79142914D01*
X210523809Y-79142914D02*
X210761904Y-79047676D01*
X210380952Y-79333390D02*
X210523809Y-79142914D01*
X210523809Y-79142914D02*
X210666666Y-79333390D01*
X211285714Y-78904819D02*
X211285714Y-79142914D01*
X211047619Y-79047676D02*
X211285714Y-79142914D01*
X211285714Y-79142914D02*
X211523809Y-79047676D01*
X211142857Y-79333390D02*
X211285714Y-79142914D01*
X211285714Y-79142914D02*
X211428571Y-79333390D01*
X212428571Y-79904819D02*
X211857143Y-79904819D01*
X212142857Y-79904819D02*
X212142857Y-78904819D01*
X212142857Y-78904819D02*
X212047619Y-79047676D01*
X212047619Y-79047676D02*
X211952381Y-79142914D01*
X211952381Y-79142914D02*
X211857143Y-79190533D01*
X83666666Y-79904819D02*
X83333333Y-79428628D01*
X83095238Y-79904819D02*
X83095238Y-78904819D01*
X83095238Y-78904819D02*
X83476190Y-78904819D01*
X83476190Y-78904819D02*
X83571428Y-78952438D01*
X83571428Y-78952438D02*
X83619047Y-79000057D01*
X83619047Y-79000057D02*
X83666666Y-79095295D01*
X83666666Y-79095295D02*
X83666666Y-79238152D01*
X83666666Y-79238152D02*
X83619047Y-79333390D01*
X83619047Y-79333390D02*
X83571428Y-79381009D01*
X83571428Y-79381009D02*
X83476190Y-79428628D01*
X83476190Y-79428628D02*
X83095238Y-79428628D01*
X84095238Y-79381009D02*
X84428571Y-79381009D01*
X84571428Y-79904819D02*
X84095238Y-79904819D01*
X84095238Y-79904819D02*
X84095238Y-78904819D01*
X84095238Y-78904819D02*
X84571428Y-78904819D01*
X85333333Y-79381009D02*
X85000000Y-79381009D01*
X85000000Y-79904819D02*
X85000000Y-78904819D01*
X85000000Y-78904819D02*
X85476190Y-78904819D01*
X86000000Y-78904819D02*
X86000000Y-79142914D01*
X85761905Y-79047676D02*
X86000000Y-79142914D01*
X86000000Y-79142914D02*
X86238095Y-79047676D01*
X85857143Y-79333390D02*
X86000000Y-79142914D01*
X86000000Y-79142914D02*
X86142857Y-79333390D01*
X86761905Y-78904819D02*
X86761905Y-79142914D01*
X86523810Y-79047676D02*
X86761905Y-79142914D01*
X86761905Y-79142914D02*
X87000000Y-79047676D01*
X86619048Y-79333390D02*
X86761905Y-79142914D01*
X86761905Y-79142914D02*
X86904762Y-79333390D01*
X90856667Y-137487200D02*
X90999524Y-137534819D01*
X90999524Y-137534819D02*
X91237619Y-137534819D01*
X91237619Y-137534819D02*
X91332857Y-137487200D01*
X91332857Y-137487200D02*
X91380476Y-137439580D01*
X91380476Y-137439580D02*
X91428095Y-137344342D01*
X91428095Y-137344342D02*
X91428095Y-137249104D01*
X91428095Y-137249104D02*
X91380476Y-137153866D01*
X91380476Y-137153866D02*
X91332857Y-137106247D01*
X91332857Y-137106247D02*
X91237619Y-137058628D01*
X91237619Y-137058628D02*
X91047143Y-137011009D01*
X91047143Y-137011009D02*
X90951905Y-136963390D01*
X90951905Y-136963390D02*
X90904286Y-136915771D01*
X90904286Y-136915771D02*
X90856667Y-136820533D01*
X90856667Y-136820533D02*
X90856667Y-136725295D01*
X90856667Y-136725295D02*
X90904286Y-136630057D01*
X90904286Y-136630057D02*
X90951905Y-136582438D01*
X90951905Y-136582438D02*
X91047143Y-136534819D01*
X91047143Y-136534819D02*
X91285238Y-136534819D01*
X91285238Y-136534819D02*
X91428095Y-136582438D01*
X91761429Y-136534819D02*
X91999524Y-137534819D01*
X91999524Y-137534819D02*
X92190000Y-136820533D01*
X92190000Y-136820533D02*
X92380476Y-137534819D01*
X92380476Y-137534819D02*
X92618572Y-136534819D01*
X92904286Y-136534819D02*
X93523333Y-136534819D01*
X93523333Y-136534819D02*
X93190000Y-136915771D01*
X93190000Y-136915771D02*
X93332857Y-136915771D01*
X93332857Y-136915771D02*
X93428095Y-136963390D01*
X93428095Y-136963390D02*
X93475714Y-137011009D01*
X93475714Y-137011009D02*
X93523333Y-137106247D01*
X93523333Y-137106247D02*
X93523333Y-137344342D01*
X93523333Y-137344342D02*
X93475714Y-137439580D01*
X93475714Y-137439580D02*
X93428095Y-137487200D01*
X93428095Y-137487200D02*
X93332857Y-137534819D01*
X93332857Y-137534819D02*
X93047143Y-137534819D01*
X93047143Y-137534819D02*
X92951905Y-137487200D01*
X92951905Y-137487200D02*
X92904286Y-137439580D01*
X112209167Y-140229700D02*
X112352024Y-140277319D01*
X112352024Y-140277319D02*
X112590119Y-140277319D01*
X112590119Y-140277319D02*
X112685357Y-140229700D01*
X112685357Y-140229700D02*
X112732976Y-140182080D01*
X112732976Y-140182080D02*
X112780595Y-140086842D01*
X112780595Y-140086842D02*
X112780595Y-139991604D01*
X112780595Y-139991604D02*
X112732976Y-139896366D01*
X112732976Y-139896366D02*
X112685357Y-139848747D01*
X112685357Y-139848747D02*
X112590119Y-139801128D01*
X112590119Y-139801128D02*
X112399643Y-139753509D01*
X112399643Y-139753509D02*
X112304405Y-139705890D01*
X112304405Y-139705890D02*
X112256786Y-139658271D01*
X112256786Y-139658271D02*
X112209167Y-139563033D01*
X112209167Y-139563033D02*
X112209167Y-139467795D01*
X112209167Y-139467795D02*
X112256786Y-139372557D01*
X112256786Y-139372557D02*
X112304405Y-139324938D01*
X112304405Y-139324938D02*
X112399643Y-139277319D01*
X112399643Y-139277319D02*
X112637738Y-139277319D01*
X112637738Y-139277319D02*
X112780595Y-139324938D01*
X113113929Y-139277319D02*
X113352024Y-140277319D01*
X113352024Y-140277319D02*
X113542500Y-139563033D01*
X113542500Y-139563033D02*
X113732976Y-140277319D01*
X113732976Y-140277319D02*
X113971072Y-139277319D01*
X114875833Y-140277319D02*
X114304405Y-140277319D01*
X114590119Y-140277319D02*
X114590119Y-139277319D01*
X114590119Y-139277319D02*
X114494881Y-139420176D01*
X114494881Y-139420176D02*
X114399643Y-139515414D01*
X114399643Y-139515414D02*
X114304405Y-139563033D01*
X128896666Y-81084819D02*
X128896666Y-81799104D01*
X128896666Y-81799104D02*
X128849047Y-81941961D01*
X128849047Y-81941961D02*
X128753809Y-82037200D01*
X128753809Y-82037200D02*
X128610952Y-82084819D01*
X128610952Y-82084819D02*
X128515714Y-82084819D01*
X129277619Y-81084819D02*
X129896666Y-81084819D01*
X129896666Y-81084819D02*
X129563333Y-81465771D01*
X129563333Y-81465771D02*
X129706190Y-81465771D01*
X129706190Y-81465771D02*
X129801428Y-81513390D01*
X129801428Y-81513390D02*
X129849047Y-81561009D01*
X129849047Y-81561009D02*
X129896666Y-81656247D01*
X129896666Y-81656247D02*
X129896666Y-81894342D01*
X129896666Y-81894342D02*
X129849047Y-81989580D01*
X129849047Y-81989580D02*
X129801428Y-82037200D01*
X129801428Y-82037200D02*
X129706190Y-82084819D01*
X129706190Y-82084819D02*
X129420476Y-82084819D01*
X129420476Y-82084819D02*
X129325238Y-82037200D01*
X129325238Y-82037200D02*
X129277619Y-81989580D01*
X163436666Y-83584819D02*
X163436666Y-84299104D01*
X163436666Y-84299104D02*
X163389047Y-84441961D01*
X163389047Y-84441961D02*
X163293809Y-84537200D01*
X163293809Y-84537200D02*
X163150952Y-84584819D01*
X163150952Y-84584819D02*
X163055714Y-84584819D01*
X164389047Y-83584819D02*
X163912857Y-83584819D01*
X163912857Y-83584819D02*
X163865238Y-84061009D01*
X163865238Y-84061009D02*
X163912857Y-84013390D01*
X163912857Y-84013390D02*
X164008095Y-83965771D01*
X164008095Y-83965771D02*
X164246190Y-83965771D01*
X164246190Y-83965771D02*
X164341428Y-84013390D01*
X164341428Y-84013390D02*
X164389047Y-84061009D01*
X164389047Y-84061009D02*
X164436666Y-84156247D01*
X164436666Y-84156247D02*
X164436666Y-84394342D01*
X164436666Y-84394342D02*
X164389047Y-84489580D01*
X164389047Y-84489580D02*
X164341428Y-84537200D01*
X164341428Y-84537200D02*
X164246190Y-84584819D01*
X164246190Y-84584819D02*
X164008095Y-84584819D01*
X164008095Y-84584819D02*
X163912857Y-84537200D01*
X163912857Y-84537200D02*
X163865238Y-84489580D01*
X100438095Y-94954819D02*
X101009523Y-94954819D01*
X100723809Y-95954819D02*
X100723809Y-94954819D01*
X101342857Y-95954819D02*
X101342857Y-94954819D01*
X101342857Y-94954819D02*
X101723809Y-94954819D01*
X101723809Y-94954819D02*
X101819047Y-95002438D01*
X101819047Y-95002438D02*
X101866666Y-95050057D01*
X101866666Y-95050057D02*
X101914285Y-95145295D01*
X101914285Y-95145295D02*
X101914285Y-95288152D01*
X101914285Y-95288152D02*
X101866666Y-95383390D01*
X101866666Y-95383390D02*
X101819047Y-95431009D01*
X101819047Y-95431009D02*
X101723809Y-95478628D01*
X101723809Y-95478628D02*
X101342857Y-95478628D01*
X102390476Y-95954819D02*
X102580952Y-95954819D01*
X102580952Y-95954819D02*
X102676190Y-95907200D01*
X102676190Y-95907200D02*
X102723809Y-95859580D01*
X102723809Y-95859580D02*
X102819047Y-95716723D01*
X102819047Y-95716723D02*
X102866666Y-95526247D01*
X102866666Y-95526247D02*
X102866666Y-95145295D01*
X102866666Y-95145295D02*
X102819047Y-95050057D01*
X102819047Y-95050057D02*
X102771428Y-95002438D01*
X102771428Y-95002438D02*
X102676190Y-94954819D01*
X102676190Y-94954819D02*
X102485714Y-94954819D01*
X102485714Y-94954819D02*
X102390476Y-95002438D01*
X102390476Y-95002438D02*
X102342857Y-95050057D01*
X102342857Y-95050057D02*
X102295238Y-95145295D01*
X102295238Y-95145295D02*
X102295238Y-95383390D01*
X102295238Y-95383390D02*
X102342857Y-95478628D01*
X102342857Y-95478628D02*
X102390476Y-95526247D01*
X102390476Y-95526247D02*
X102485714Y-95573866D01*
X102485714Y-95573866D02*
X102676190Y-95573866D01*
X102676190Y-95573866D02*
X102771428Y-95526247D01*
X102771428Y-95526247D02*
X102819047Y-95478628D01*
X102819047Y-95478628D02*
X102866666Y-95383390D01*
X81084819Y-126579523D02*
X81799104Y-126579523D01*
X81799104Y-126579523D02*
X81941961Y-126627142D01*
X81941961Y-126627142D02*
X82037200Y-126722380D01*
X82037200Y-126722380D02*
X82084819Y-126865237D01*
X82084819Y-126865237D02*
X82084819Y-126960475D01*
X82084819Y-125579523D02*
X82084819Y-126150951D01*
X82084819Y-125865237D02*
X81084819Y-125865237D01*
X81084819Y-125865237D02*
X81227676Y-125960475D01*
X81227676Y-125960475D02*
X81322914Y-126055713D01*
X81322914Y-126055713D02*
X81370533Y-126150951D01*
X81084819Y-124960475D02*
X81084819Y-124865237D01*
X81084819Y-124865237D02*
X81132438Y-124769999D01*
X81132438Y-124769999D02*
X81180057Y-124722380D01*
X81180057Y-124722380D02*
X81275295Y-124674761D01*
X81275295Y-124674761D02*
X81465771Y-124627142D01*
X81465771Y-124627142D02*
X81703866Y-124627142D01*
X81703866Y-124627142D02*
X81894342Y-124674761D01*
X81894342Y-124674761D02*
X81989580Y-124722380D01*
X81989580Y-124722380D02*
X82037200Y-124769999D01*
X82037200Y-124769999D02*
X82084819Y-124865237D01*
X82084819Y-124865237D02*
X82084819Y-124960475D01*
X82084819Y-124960475D02*
X82037200Y-125055713D01*
X82037200Y-125055713D02*
X81989580Y-125103332D01*
X81989580Y-125103332D02*
X81894342Y-125150951D01*
X81894342Y-125150951D02*
X81703866Y-125198570D01*
X81703866Y-125198570D02*
X81465771Y-125198570D01*
X81465771Y-125198570D02*
X81275295Y-125150951D01*
X81275295Y-125150951D02*
X81180057Y-125103332D01*
X81180057Y-125103332D02*
X81132438Y-125055713D01*
X81132438Y-125055713D02*
X81084819Y-124960475D01*
X125166666Y-123454819D02*
X125166666Y-124169104D01*
X125166666Y-124169104D02*
X125119047Y-124311961D01*
X125119047Y-124311961D02*
X125023809Y-124407200D01*
X125023809Y-124407200D02*
X124880952Y-124454819D01*
X124880952Y-124454819D02*
X124785714Y-124454819D01*
X126071428Y-123454819D02*
X125880952Y-123454819D01*
X125880952Y-123454819D02*
X125785714Y-123502438D01*
X125785714Y-123502438D02*
X125738095Y-123550057D01*
X125738095Y-123550057D02*
X125642857Y-123692914D01*
X125642857Y-123692914D02*
X125595238Y-123883390D01*
X125595238Y-123883390D02*
X125595238Y-124264342D01*
X125595238Y-124264342D02*
X125642857Y-124359580D01*
X125642857Y-124359580D02*
X125690476Y-124407200D01*
X125690476Y-124407200D02*
X125785714Y-124454819D01*
X125785714Y-124454819D02*
X125976190Y-124454819D01*
X125976190Y-124454819D02*
X126071428Y-124407200D01*
X126071428Y-124407200D02*
X126119047Y-124359580D01*
X126119047Y-124359580D02*
X126166666Y-124264342D01*
X126166666Y-124264342D02*
X126166666Y-124026247D01*
X126166666Y-124026247D02*
X126119047Y-123931009D01*
X126119047Y-123931009D02*
X126071428Y-123883390D01*
X126071428Y-123883390D02*
X125976190Y-123835771D01*
X125976190Y-123835771D02*
X125785714Y-123835771D01*
X125785714Y-123835771D02*
X125690476Y-123883390D01*
X125690476Y-123883390D02*
X125642857Y-123931009D01*
X125642857Y-123931009D02*
X125595238Y-124026247D01*
X161461905Y-130454819D02*
X162033333Y-130454819D01*
X161747619Y-131454819D02*
X161747619Y-130454819D01*
X162366667Y-131454819D02*
X162366667Y-130454819D01*
X162366667Y-130454819D02*
X162747619Y-130454819D01*
X162747619Y-130454819D02*
X162842857Y-130502438D01*
X162842857Y-130502438D02*
X162890476Y-130550057D01*
X162890476Y-130550057D02*
X162938095Y-130645295D01*
X162938095Y-130645295D02*
X162938095Y-130788152D01*
X162938095Y-130788152D02*
X162890476Y-130883390D01*
X162890476Y-130883390D02*
X162842857Y-130931009D01*
X162842857Y-130931009D02*
X162747619Y-130978628D01*
X162747619Y-130978628D02*
X162366667Y-130978628D01*
X163890476Y-131454819D02*
X163319048Y-131454819D01*
X163604762Y-131454819D02*
X163604762Y-130454819D01*
X163604762Y-130454819D02*
X163509524Y-130597676D01*
X163509524Y-130597676D02*
X163414286Y-130692914D01*
X163414286Y-130692914D02*
X163319048Y-130740533D01*
X164223810Y-130454819D02*
X164842857Y-130454819D01*
X164842857Y-130454819D02*
X164509524Y-130835771D01*
X164509524Y-130835771D02*
X164652381Y-130835771D01*
X164652381Y-130835771D02*
X164747619Y-130883390D01*
X164747619Y-130883390D02*
X164795238Y-130931009D01*
X164795238Y-130931009D02*
X164842857Y-131026247D01*
X164842857Y-131026247D02*
X164842857Y-131264342D01*
X164842857Y-131264342D02*
X164795238Y-131359580D01*
X164795238Y-131359580D02*
X164747619Y-131407200D01*
X164747619Y-131407200D02*
X164652381Y-131454819D01*
X164652381Y-131454819D02*
X164366667Y-131454819D01*
X164366667Y-131454819D02*
X164271429Y-131407200D01*
X164271429Y-131407200D02*
X164223810Y-131359580D01*
X191440476Y-125434819D02*
X191440476Y-126149104D01*
X191440476Y-126149104D02*
X191392857Y-126291961D01*
X191392857Y-126291961D02*
X191297619Y-126387200D01*
X191297619Y-126387200D02*
X191154762Y-126434819D01*
X191154762Y-126434819D02*
X191059524Y-126434819D01*
X192440476Y-126434819D02*
X191869048Y-126434819D01*
X192154762Y-126434819D02*
X192154762Y-125434819D01*
X192154762Y-125434819D02*
X192059524Y-125577676D01*
X192059524Y-125577676D02*
X191964286Y-125672914D01*
X191964286Y-125672914D02*
X191869048Y-125720533D01*
X193392857Y-126434819D02*
X192821429Y-126434819D01*
X193107143Y-126434819D02*
X193107143Y-125434819D01*
X193107143Y-125434819D02*
X193011905Y-125577676D01*
X193011905Y-125577676D02*
X192916667Y-125672914D01*
X192916667Y-125672914D02*
X192821429Y-125720533D01*
X163938095Y-122954819D02*
X164509523Y-122954819D01*
X164223809Y-123954819D02*
X164223809Y-122954819D01*
X164842857Y-123954819D02*
X164842857Y-122954819D01*
X164842857Y-122954819D02*
X165223809Y-122954819D01*
X165223809Y-122954819D02*
X165319047Y-123002438D01*
X165319047Y-123002438D02*
X165366666Y-123050057D01*
X165366666Y-123050057D02*
X165414285Y-123145295D01*
X165414285Y-123145295D02*
X165414285Y-123288152D01*
X165414285Y-123288152D02*
X165366666Y-123383390D01*
X165366666Y-123383390D02*
X165319047Y-123431009D01*
X165319047Y-123431009D02*
X165223809Y-123478628D01*
X165223809Y-123478628D02*
X164842857Y-123478628D01*
X165747619Y-122954819D02*
X166366666Y-122954819D01*
X166366666Y-122954819D02*
X166033333Y-123335771D01*
X166033333Y-123335771D02*
X166176190Y-123335771D01*
X166176190Y-123335771D02*
X166271428Y-123383390D01*
X166271428Y-123383390D02*
X166319047Y-123431009D01*
X166319047Y-123431009D02*
X166366666Y-123526247D01*
X166366666Y-123526247D02*
X166366666Y-123764342D01*
X166366666Y-123764342D02*
X166319047Y-123859580D01*
X166319047Y-123859580D02*
X166271428Y-123907200D01*
X166271428Y-123907200D02*
X166176190Y-123954819D01*
X166176190Y-123954819D02*
X165890476Y-123954819D01*
X165890476Y-123954819D02*
X165795238Y-123907200D01*
X165795238Y-123907200D02*
X165747619Y-123859580D01*
X145805595Y-82427319D02*
X145805595Y-83236842D01*
X145805595Y-83236842D02*
X145853214Y-83332080D01*
X145853214Y-83332080D02*
X145900833Y-83379700D01*
X145900833Y-83379700D02*
X145996071Y-83427319D01*
X145996071Y-83427319D02*
X146186547Y-83427319D01*
X146186547Y-83427319D02*
X146281785Y-83379700D01*
X146281785Y-83379700D02*
X146329404Y-83332080D01*
X146329404Y-83332080D02*
X146377023Y-83236842D01*
X146377023Y-83236842D02*
X146377023Y-82427319D01*
X147377023Y-83427319D02*
X146805595Y-83427319D01*
X147091309Y-83427319D02*
X147091309Y-82427319D01*
X147091309Y-82427319D02*
X146996071Y-82570176D01*
X146996071Y-82570176D02*
X146900833Y-82665414D01*
X146900833Y-82665414D02*
X146805595Y-82713033D01*
X155896666Y-136584819D02*
X155896666Y-137299104D01*
X155896666Y-137299104D02*
X155849047Y-137441961D01*
X155849047Y-137441961D02*
X155753809Y-137537200D01*
X155753809Y-137537200D02*
X155610952Y-137584819D01*
X155610952Y-137584819D02*
X155515714Y-137584819D01*
X156896666Y-137584819D02*
X156325238Y-137584819D01*
X156610952Y-137584819D02*
X156610952Y-136584819D01*
X156610952Y-136584819D02*
X156515714Y-136727676D01*
X156515714Y-136727676D02*
X156420476Y-136822914D01*
X156420476Y-136822914D02*
X156325238Y-136870533D01*
X166938095Y-84454819D02*
X167509523Y-84454819D01*
X167223809Y-85454819D02*
X167223809Y-84454819D01*
X167842857Y-85454819D02*
X167842857Y-84454819D01*
X167842857Y-84454819D02*
X168223809Y-84454819D01*
X168223809Y-84454819D02*
X168319047Y-84502438D01*
X168319047Y-84502438D02*
X168366666Y-84550057D01*
X168366666Y-84550057D02*
X168414285Y-84645295D01*
X168414285Y-84645295D02*
X168414285Y-84788152D01*
X168414285Y-84788152D02*
X168366666Y-84883390D01*
X168366666Y-84883390D02*
X168319047Y-84931009D01*
X168319047Y-84931009D02*
X168223809Y-84978628D01*
X168223809Y-84978628D02*
X167842857Y-84978628D01*
X169366666Y-85454819D02*
X168795238Y-85454819D01*
X169080952Y-85454819D02*
X169080952Y-84454819D01*
X169080952Y-84454819D02*
X168985714Y-84597676D01*
X168985714Y-84597676D02*
X168890476Y-84692914D01*
X168890476Y-84692914D02*
X168795238Y-84740533D01*
X192461905Y-102454819D02*
X193033333Y-102454819D01*
X192747619Y-103454819D02*
X192747619Y-102454819D01*
X193366667Y-103454819D02*
X193366667Y-102454819D01*
X193366667Y-102454819D02*
X193747619Y-102454819D01*
X193747619Y-102454819D02*
X193842857Y-102502438D01*
X193842857Y-102502438D02*
X193890476Y-102550057D01*
X193890476Y-102550057D02*
X193938095Y-102645295D01*
X193938095Y-102645295D02*
X193938095Y-102788152D01*
X193938095Y-102788152D02*
X193890476Y-102883390D01*
X193890476Y-102883390D02*
X193842857Y-102931009D01*
X193842857Y-102931009D02*
X193747619Y-102978628D01*
X193747619Y-102978628D02*
X193366667Y-102978628D01*
X194890476Y-103454819D02*
X194319048Y-103454819D01*
X194604762Y-103454819D02*
X194604762Y-102454819D01*
X194604762Y-102454819D02*
X194509524Y-102597676D01*
X194509524Y-102597676D02*
X194414286Y-102692914D01*
X194414286Y-102692914D02*
X194319048Y-102740533D01*
X195271429Y-102550057D02*
X195319048Y-102502438D01*
X195319048Y-102502438D02*
X195414286Y-102454819D01*
X195414286Y-102454819D02*
X195652381Y-102454819D01*
X195652381Y-102454819D02*
X195747619Y-102502438D01*
X195747619Y-102502438D02*
X195795238Y-102550057D01*
X195795238Y-102550057D02*
X195842857Y-102645295D01*
X195842857Y-102645295D02*
X195842857Y-102740533D01*
X195842857Y-102740533D02*
X195795238Y-102883390D01*
X195795238Y-102883390D02*
X195223810Y-103454819D01*
X195223810Y-103454819D02*
X195842857Y-103454819D01*
X163936666Y-136584819D02*
X163936666Y-137299104D01*
X163936666Y-137299104D02*
X163889047Y-137441961D01*
X163889047Y-137441961D02*
X163793809Y-137537200D01*
X163793809Y-137537200D02*
X163650952Y-137584819D01*
X163650952Y-137584819D02*
X163555714Y-137584819D01*
X164555714Y-137013390D02*
X164460476Y-136965771D01*
X164460476Y-136965771D02*
X164412857Y-136918152D01*
X164412857Y-136918152D02*
X164365238Y-136822914D01*
X164365238Y-136822914D02*
X164365238Y-136775295D01*
X164365238Y-136775295D02*
X164412857Y-136680057D01*
X164412857Y-136680057D02*
X164460476Y-136632438D01*
X164460476Y-136632438D02*
X164555714Y-136584819D01*
X164555714Y-136584819D02*
X164746190Y-136584819D01*
X164746190Y-136584819D02*
X164841428Y-136632438D01*
X164841428Y-136632438D02*
X164889047Y-136680057D01*
X164889047Y-136680057D02*
X164936666Y-136775295D01*
X164936666Y-136775295D02*
X164936666Y-136822914D01*
X164936666Y-136822914D02*
X164889047Y-136918152D01*
X164889047Y-136918152D02*
X164841428Y-136965771D01*
X164841428Y-136965771D02*
X164746190Y-137013390D01*
X164746190Y-137013390D02*
X164555714Y-137013390D01*
X164555714Y-137013390D02*
X164460476Y-137061009D01*
X164460476Y-137061009D02*
X164412857Y-137108628D01*
X164412857Y-137108628D02*
X164365238Y-137203866D01*
X164365238Y-137203866D02*
X164365238Y-137394342D01*
X164365238Y-137394342D02*
X164412857Y-137489580D01*
X164412857Y-137489580D02*
X164460476Y-137537200D01*
X164460476Y-137537200D02*
X164555714Y-137584819D01*
X164555714Y-137584819D02*
X164746190Y-137584819D01*
X164746190Y-137584819D02*
X164841428Y-137537200D01*
X164841428Y-137537200D02*
X164889047Y-137489580D01*
X164889047Y-137489580D02*
X164936666Y-137394342D01*
X164936666Y-137394342D02*
X164936666Y-137203866D01*
X164936666Y-137203866D02*
X164889047Y-137108628D01*
X164889047Y-137108628D02*
X164841428Y-137061009D01*
X164841428Y-137061009D02*
X164746190Y-137013390D01*
X150690476Y-106144819D02*
X150690476Y-106859104D01*
X150690476Y-106859104D02*
X150642857Y-107001961D01*
X150642857Y-107001961D02*
X150547619Y-107097200D01*
X150547619Y-107097200D02*
X150404762Y-107144819D01*
X150404762Y-107144819D02*
X150309524Y-107144819D01*
X151690476Y-107144819D02*
X151119048Y-107144819D01*
X151404762Y-107144819D02*
X151404762Y-106144819D01*
X151404762Y-106144819D02*
X151309524Y-106287676D01*
X151309524Y-106287676D02*
X151214286Y-106382914D01*
X151214286Y-106382914D02*
X151119048Y-106430533D01*
X152071429Y-106240057D02*
X152119048Y-106192438D01*
X152119048Y-106192438D02*
X152214286Y-106144819D01*
X152214286Y-106144819D02*
X152452381Y-106144819D01*
X152452381Y-106144819D02*
X152547619Y-106192438D01*
X152547619Y-106192438D02*
X152595238Y-106240057D01*
X152595238Y-106240057D02*
X152642857Y-106335295D01*
X152642857Y-106335295D02*
X152642857Y-106430533D01*
X152642857Y-106430533D02*
X152595238Y-106573390D01*
X152595238Y-106573390D02*
X152023810Y-107144819D01*
X152023810Y-107144819D02*
X152642857Y-107144819D01*
X126438095Y-127454819D02*
X127009523Y-127454819D01*
X126723809Y-128454819D02*
X126723809Y-127454819D01*
X127342857Y-128454819D02*
X127342857Y-127454819D01*
X127342857Y-127454819D02*
X127723809Y-127454819D01*
X127723809Y-127454819D02*
X127819047Y-127502438D01*
X127819047Y-127502438D02*
X127866666Y-127550057D01*
X127866666Y-127550057D02*
X127914285Y-127645295D01*
X127914285Y-127645295D02*
X127914285Y-127788152D01*
X127914285Y-127788152D02*
X127866666Y-127883390D01*
X127866666Y-127883390D02*
X127819047Y-127931009D01*
X127819047Y-127931009D02*
X127723809Y-127978628D01*
X127723809Y-127978628D02*
X127342857Y-127978628D01*
X128771428Y-127788152D02*
X128771428Y-128454819D01*
X128533333Y-127407200D02*
X128295238Y-128121485D01*
X128295238Y-128121485D02*
X128914285Y-128121485D01*
X113896666Y-81084819D02*
X113896666Y-81799104D01*
X113896666Y-81799104D02*
X113849047Y-81941961D01*
X113849047Y-81941961D02*
X113753809Y-82037200D01*
X113753809Y-82037200D02*
X113610952Y-82084819D01*
X113610952Y-82084819D02*
X113515714Y-82084819D01*
X114325238Y-81180057D02*
X114372857Y-81132438D01*
X114372857Y-81132438D02*
X114468095Y-81084819D01*
X114468095Y-81084819D02*
X114706190Y-81084819D01*
X114706190Y-81084819D02*
X114801428Y-81132438D01*
X114801428Y-81132438D02*
X114849047Y-81180057D01*
X114849047Y-81180057D02*
X114896666Y-81275295D01*
X114896666Y-81275295D02*
X114896666Y-81370533D01*
X114896666Y-81370533D02*
X114849047Y-81513390D01*
X114849047Y-81513390D02*
X114277619Y-82084819D01*
X114277619Y-82084819D02*
X114896666Y-82084819D01*
X205460476Y-87864819D02*
X205460476Y-88579104D01*
X205460476Y-88579104D02*
X205412857Y-88721961D01*
X205412857Y-88721961D02*
X205317619Y-88817200D01*
X205317619Y-88817200D02*
X205174762Y-88864819D01*
X205174762Y-88864819D02*
X205079524Y-88864819D01*
X206460476Y-88864819D02*
X205889048Y-88864819D01*
X206174762Y-88864819D02*
X206174762Y-87864819D01*
X206174762Y-87864819D02*
X206079524Y-88007676D01*
X206079524Y-88007676D02*
X205984286Y-88102914D01*
X205984286Y-88102914D02*
X205889048Y-88150533D01*
X206793810Y-87864819D02*
X207412857Y-87864819D01*
X207412857Y-87864819D02*
X207079524Y-88245771D01*
X207079524Y-88245771D02*
X207222381Y-88245771D01*
X207222381Y-88245771D02*
X207317619Y-88293390D01*
X207317619Y-88293390D02*
X207365238Y-88341009D01*
X207365238Y-88341009D02*
X207412857Y-88436247D01*
X207412857Y-88436247D02*
X207412857Y-88674342D01*
X207412857Y-88674342D02*
X207365238Y-88769580D01*
X207365238Y-88769580D02*
X207317619Y-88817200D01*
X207317619Y-88817200D02*
X207222381Y-88864819D01*
X207222381Y-88864819D02*
X206936667Y-88864819D01*
X206936667Y-88864819D02*
X206841429Y-88817200D01*
X206841429Y-88817200D02*
X206793810Y-88769580D01*
X109438095Y-126454819D02*
X110009523Y-126454819D01*
X109723809Y-127454819D02*
X109723809Y-126454819D01*
X110342857Y-127454819D02*
X110342857Y-126454819D01*
X110342857Y-126454819D02*
X110723809Y-126454819D01*
X110723809Y-126454819D02*
X110819047Y-126502438D01*
X110819047Y-126502438D02*
X110866666Y-126550057D01*
X110866666Y-126550057D02*
X110914285Y-126645295D01*
X110914285Y-126645295D02*
X110914285Y-126788152D01*
X110914285Y-126788152D02*
X110866666Y-126883390D01*
X110866666Y-126883390D02*
X110819047Y-126931009D01*
X110819047Y-126931009D02*
X110723809Y-126978628D01*
X110723809Y-126978628D02*
X110342857Y-126978628D01*
X111247619Y-126454819D02*
X111914285Y-126454819D01*
X111914285Y-126454819D02*
X111485714Y-127454819D01*
X130209167Y-141729700D02*
X130352024Y-141777319D01*
X130352024Y-141777319D02*
X130590119Y-141777319D01*
X130590119Y-141777319D02*
X130685357Y-141729700D01*
X130685357Y-141729700D02*
X130732976Y-141682080D01*
X130732976Y-141682080D02*
X130780595Y-141586842D01*
X130780595Y-141586842D02*
X130780595Y-141491604D01*
X130780595Y-141491604D02*
X130732976Y-141396366D01*
X130732976Y-141396366D02*
X130685357Y-141348747D01*
X130685357Y-141348747D02*
X130590119Y-141301128D01*
X130590119Y-141301128D02*
X130399643Y-141253509D01*
X130399643Y-141253509D02*
X130304405Y-141205890D01*
X130304405Y-141205890D02*
X130256786Y-141158271D01*
X130256786Y-141158271D02*
X130209167Y-141063033D01*
X130209167Y-141063033D02*
X130209167Y-140967795D01*
X130209167Y-140967795D02*
X130256786Y-140872557D01*
X130256786Y-140872557D02*
X130304405Y-140824938D01*
X130304405Y-140824938D02*
X130399643Y-140777319D01*
X130399643Y-140777319D02*
X130637738Y-140777319D01*
X130637738Y-140777319D02*
X130780595Y-140824938D01*
X131113929Y-140777319D02*
X131352024Y-141777319D01*
X131352024Y-141777319D02*
X131542500Y-141063033D01*
X131542500Y-141063033D02*
X131732976Y-141777319D01*
X131732976Y-141777319D02*
X131971072Y-140777319D01*
X132304405Y-140872557D02*
X132352024Y-140824938D01*
X132352024Y-140824938D02*
X132447262Y-140777319D01*
X132447262Y-140777319D02*
X132685357Y-140777319D01*
X132685357Y-140777319D02*
X132780595Y-140824938D01*
X132780595Y-140824938D02*
X132828214Y-140872557D01*
X132828214Y-140872557D02*
X132875833Y-140967795D01*
X132875833Y-140967795D02*
X132875833Y-141063033D01*
X132875833Y-141063033D02*
X132828214Y-141205890D01*
X132828214Y-141205890D02*
X132256786Y-141777319D01*
X132256786Y-141777319D02*
X132875833Y-141777319D01*
X121396666Y-81084819D02*
X121396666Y-81799104D01*
X121396666Y-81799104D02*
X121349047Y-81941961D01*
X121349047Y-81941961D02*
X121253809Y-82037200D01*
X121253809Y-82037200D02*
X121110952Y-82084819D01*
X121110952Y-82084819D02*
X121015714Y-82084819D01*
X121777619Y-81084819D02*
X122444285Y-81084819D01*
X122444285Y-81084819D02*
X122015714Y-82084819D01*
X170396666Y-122584819D02*
X170396666Y-123299104D01*
X170396666Y-123299104D02*
X170349047Y-123441961D01*
X170349047Y-123441961D02*
X170253809Y-123537200D01*
X170253809Y-123537200D02*
X170110952Y-123584819D01*
X170110952Y-123584819D02*
X170015714Y-123584819D01*
X171301428Y-122918152D02*
X171301428Y-123584819D01*
X171063333Y-122537200D02*
X170825238Y-123251485D01*
X170825238Y-123251485D02*
X171444285Y-123251485D01*
X146461905Y-102954819D02*
X147033333Y-102954819D01*
X146747619Y-103954819D02*
X146747619Y-102954819D01*
X147366667Y-103954819D02*
X147366667Y-102954819D01*
X147366667Y-102954819D02*
X147747619Y-102954819D01*
X147747619Y-102954819D02*
X147842857Y-103002438D01*
X147842857Y-103002438D02*
X147890476Y-103050057D01*
X147890476Y-103050057D02*
X147938095Y-103145295D01*
X147938095Y-103145295D02*
X147938095Y-103288152D01*
X147938095Y-103288152D02*
X147890476Y-103383390D01*
X147890476Y-103383390D02*
X147842857Y-103431009D01*
X147842857Y-103431009D02*
X147747619Y-103478628D01*
X147747619Y-103478628D02*
X147366667Y-103478628D01*
X148890476Y-103954819D02*
X148319048Y-103954819D01*
X148604762Y-103954819D02*
X148604762Y-102954819D01*
X148604762Y-102954819D02*
X148509524Y-103097676D01*
X148509524Y-103097676D02*
X148414286Y-103192914D01*
X148414286Y-103192914D02*
X148319048Y-103240533D01*
X149842857Y-103954819D02*
X149271429Y-103954819D01*
X149557143Y-103954819D02*
X149557143Y-102954819D01*
X149557143Y-102954819D02*
X149461905Y-103097676D01*
X149461905Y-103097676D02*
X149366667Y-103192914D01*
X149366667Y-103192914D02*
X149271429Y-103240533D01*
X104396666Y-137584819D02*
X104396666Y-138299104D01*
X104396666Y-138299104D02*
X104349047Y-138441961D01*
X104349047Y-138441961D02*
X104253809Y-138537200D01*
X104253809Y-138537200D02*
X104110952Y-138584819D01*
X104110952Y-138584819D02*
X104015714Y-138584819D01*
X104920476Y-138584819D02*
X105110952Y-138584819D01*
X105110952Y-138584819D02*
X105206190Y-138537200D01*
X105206190Y-138537200D02*
X105253809Y-138489580D01*
X105253809Y-138489580D02*
X105349047Y-138346723D01*
X105349047Y-138346723D02*
X105396666Y-138156247D01*
X105396666Y-138156247D02*
X105396666Y-137775295D01*
X105396666Y-137775295D02*
X105349047Y-137680057D01*
X105349047Y-137680057D02*
X105301428Y-137632438D01*
X105301428Y-137632438D02*
X105206190Y-137584819D01*
X105206190Y-137584819D02*
X105015714Y-137584819D01*
X105015714Y-137584819D02*
X104920476Y-137632438D01*
X104920476Y-137632438D02*
X104872857Y-137680057D01*
X104872857Y-137680057D02*
X104825238Y-137775295D01*
X104825238Y-137775295D02*
X104825238Y-138013390D01*
X104825238Y-138013390D02*
X104872857Y-138108628D01*
X104872857Y-138108628D02*
X104920476Y-138156247D01*
X104920476Y-138156247D02*
X105015714Y-138203866D01*
X105015714Y-138203866D02*
X105206190Y-138203866D01*
X105206190Y-138203866D02*
X105301428Y-138156247D01*
X105301428Y-138156247D02*
X105349047Y-138108628D01*
X105349047Y-138108628D02*
X105396666Y-138013390D01*
X194938095Y-96454819D02*
X195509523Y-96454819D01*
X195223809Y-97454819D02*
X195223809Y-96454819D01*
X195842857Y-97454819D02*
X195842857Y-96454819D01*
X195842857Y-96454819D02*
X196223809Y-96454819D01*
X196223809Y-96454819D02*
X196319047Y-96502438D01*
X196319047Y-96502438D02*
X196366666Y-96550057D01*
X196366666Y-96550057D02*
X196414285Y-96645295D01*
X196414285Y-96645295D02*
X196414285Y-96788152D01*
X196414285Y-96788152D02*
X196366666Y-96883390D01*
X196366666Y-96883390D02*
X196319047Y-96931009D01*
X196319047Y-96931009D02*
X196223809Y-96978628D01*
X196223809Y-96978628D02*
X195842857Y-96978628D01*
X196795238Y-96550057D02*
X196842857Y-96502438D01*
X196842857Y-96502438D02*
X196938095Y-96454819D01*
X196938095Y-96454819D02*
X197176190Y-96454819D01*
X197176190Y-96454819D02*
X197271428Y-96502438D01*
X197271428Y-96502438D02*
X197319047Y-96550057D01*
X197319047Y-96550057D02*
X197366666Y-96645295D01*
X197366666Y-96645295D02*
X197366666Y-96740533D01*
X197366666Y-96740533D02*
X197319047Y-96883390D01*
X197319047Y-96883390D02*
X196747619Y-97454819D01*
X196747619Y-97454819D02*
X197366666Y-97454819D01*
X129438095Y-93954819D02*
X130009523Y-93954819D01*
X129723809Y-94954819D02*
X129723809Y-93954819D01*
X130342857Y-94954819D02*
X130342857Y-93954819D01*
X130342857Y-93954819D02*
X130723809Y-93954819D01*
X130723809Y-93954819D02*
X130819047Y-94002438D01*
X130819047Y-94002438D02*
X130866666Y-94050057D01*
X130866666Y-94050057D02*
X130914285Y-94145295D01*
X130914285Y-94145295D02*
X130914285Y-94288152D01*
X130914285Y-94288152D02*
X130866666Y-94383390D01*
X130866666Y-94383390D02*
X130819047Y-94431009D01*
X130819047Y-94431009D02*
X130723809Y-94478628D01*
X130723809Y-94478628D02*
X130342857Y-94478628D01*
X131819047Y-93954819D02*
X131342857Y-93954819D01*
X131342857Y-93954819D02*
X131295238Y-94431009D01*
X131295238Y-94431009D02*
X131342857Y-94383390D01*
X131342857Y-94383390D02*
X131438095Y-94335771D01*
X131438095Y-94335771D02*
X131676190Y-94335771D01*
X131676190Y-94335771D02*
X131771428Y-94383390D01*
X131771428Y-94383390D02*
X131819047Y-94431009D01*
X131819047Y-94431009D02*
X131866666Y-94526247D01*
X131866666Y-94526247D02*
X131866666Y-94764342D01*
X131866666Y-94764342D02*
X131819047Y-94859580D01*
X131819047Y-94859580D02*
X131771428Y-94907200D01*
X131771428Y-94907200D02*
X131676190Y-94954819D01*
X131676190Y-94954819D02*
X131438095Y-94954819D01*
X131438095Y-94954819D02*
X131342857Y-94907200D01*
X131342857Y-94907200D02*
X131295238Y-94859580D01*
D11*
%TO.C,A1*%
X140010000Y-119782500D02*
G75*
G02*
X137360000Y-122432500I-2650000J0D01*
G01*
X137360000Y-99352500D02*
G75*
G02*
X140010000Y-102002500I0J-2650000D01*
G01*
X91640000Y-122432500D02*
G75*
G02*
X88990000Y-119782500I0J2650000D01*
G01*
X88990000Y-102002500D02*
G75*
G02*
X91640000Y-99352500I2650000J0D01*
G01*
X140010000Y-102002500D02*
X140010000Y-119782500D01*
X96450000Y-122752500D02*
X94450000Y-122752500D01*
X91640000Y-122432500D02*
X137360000Y-122432500D01*
X91640000Y-99352500D02*
X137360000Y-99352500D01*
X88990000Y-102002500D02*
X88990000Y-119782500D01*
%TO.C,SW3*%
X87000000Y-137840000D02*
X87000000Y-139223000D01*
X87000000Y-137840000D02*
X88383000Y-137840000D01*
X87240000Y-138080000D02*
X87240000Y-145460000D01*
X87240000Y-138080000D02*
X97140000Y-138080000D01*
X87240000Y-145460000D02*
X97140000Y-145460000D01*
X91513333Y-139865000D02*
X91513333Y-141135000D01*
X91513333Y-142405000D02*
X91513333Y-143675000D01*
X97140000Y-138080000D02*
X97140000Y-145460000D01*
X90160000Y-139865000D02*
X91513333Y-139865000D01*
X91513333Y-141135000D01*
X90160000Y-141135000D01*
X90160000Y-139865000D01*
G36*
X90160000Y-139865000D02*
G01*
X91513333Y-139865000D01*
X91513333Y-141135000D01*
X90160000Y-141135000D01*
X90160000Y-139865000D01*
G37*
X90160000Y-139865000D02*
X94220000Y-139865000D01*
X94220000Y-141135000D01*
X90160000Y-141135000D01*
X90160000Y-139865000D01*
X90160000Y-142405000D02*
X91513333Y-142405000D01*
X91513333Y-143675000D01*
X90160000Y-143675000D01*
X90160000Y-142405000D01*
G36*
X90160000Y-142405000D02*
G01*
X91513333Y-142405000D01*
X91513333Y-143675000D01*
X90160000Y-143675000D01*
X90160000Y-142405000D01*
G37*
X90160000Y-142405000D02*
X94220000Y-142405000D01*
X94220000Y-143675000D01*
X90160000Y-143675000D01*
X90160000Y-142405000D01*
%TO.C,SW1*%
X108352500Y-140582500D02*
X108352500Y-141965500D01*
X108352500Y-140582500D02*
X109735500Y-140582500D01*
X108592500Y-140822500D02*
X108592500Y-148202500D01*
X108592500Y-140822500D02*
X118492500Y-140822500D01*
X108592500Y-148202500D02*
X118492500Y-148202500D01*
X112865833Y-142607500D02*
X112865833Y-143877500D01*
X112865833Y-145147500D02*
X112865833Y-146417500D01*
X118492500Y-140822500D02*
X118492500Y-148202500D01*
X111512500Y-142607500D02*
X112865833Y-142607500D01*
X112865833Y-143877500D01*
X111512500Y-143877500D01*
X111512500Y-142607500D01*
G36*
X111512500Y-142607500D02*
G01*
X112865833Y-142607500D01*
X112865833Y-143877500D01*
X111512500Y-143877500D01*
X111512500Y-142607500D01*
G37*
X111512500Y-142607500D02*
X115572500Y-142607500D01*
X115572500Y-143877500D01*
X111512500Y-143877500D01*
X111512500Y-142607500D01*
X111512500Y-145147500D02*
X112865833Y-145147500D01*
X112865833Y-146417500D01*
X111512500Y-146417500D01*
X111512500Y-145147500D01*
G36*
X111512500Y-145147500D02*
G01*
X112865833Y-145147500D01*
X112865833Y-146417500D01*
X111512500Y-146417500D01*
X111512500Y-145147500D01*
G37*
X111512500Y-145147500D02*
X115572500Y-145147500D01*
X115572500Y-146417500D01*
X111512500Y-146417500D01*
X111512500Y-145147500D01*
%TO.C,J3*%
X126340000Y-82630000D02*
X126340000Y-89370000D01*
X126340000Y-82630000D02*
X132120000Y-82630000D01*
X126340000Y-83750000D02*
X132120000Y-83750000D01*
X126340000Y-88850000D02*
X132120000Y-88850000D01*
X126340000Y-89370000D02*
X127660000Y-89370000D01*
X128260000Y-89370000D02*
X132120000Y-89370000D01*
X132120000Y-82630000D02*
X132120000Y-89370000D01*
X128400000Y-89980000D02*
X127520000Y-89980000D01*
X127960000Y-89370000D01*
X128400000Y-89980000D01*
G36*
X128400000Y-89980000D02*
G01*
X127520000Y-89980000D01*
X127960000Y-89370000D01*
X128400000Y-89980000D01*
G37*
%TO.C,J5*%
X160880000Y-85130000D02*
X160880000Y-91870000D01*
X160880000Y-85130000D02*
X166660000Y-85130000D01*
X160880000Y-86250000D02*
X166660000Y-86250000D01*
X160880000Y-91350000D02*
X166660000Y-91350000D01*
X160880000Y-91870000D02*
X162200000Y-91870000D01*
X162800000Y-91870000D02*
X166660000Y-91870000D01*
X166660000Y-85130000D02*
X166660000Y-91870000D01*
X162940000Y-92480000D02*
X162060000Y-92480000D01*
X162500000Y-91870000D01*
X162940000Y-92480000D01*
G36*
X162940000Y-92480000D02*
G01*
X162060000Y-92480000D01*
X162500000Y-91870000D01*
X162940000Y-92480000D01*
G37*
%TO.C,TP9*%
X102500000Y-93000000D02*
G75*
G02*
X99500000Y-93000000I-1500000J0D01*
G01*
X99500000Y-93000000D02*
G75*
G02*
X102500000Y-93000000I1500000J0D01*
G01*
%TO.C,J10*%
X82630000Y-122880000D02*
X89370000Y-122880000D01*
X82630000Y-128660000D02*
X82630000Y-122880000D01*
X82630000Y-128660000D02*
X89370000Y-128660000D01*
X83750000Y-128660000D02*
X83750000Y-122880000D01*
X88850000Y-128660000D02*
X88850000Y-122880000D01*
X89370000Y-126740000D02*
X89370000Y-122880000D01*
X89370000Y-128660000D02*
X89370000Y-127340000D01*
X89980000Y-127480000D02*
X89370000Y-127040000D01*
X89980000Y-126600000D01*
X89980000Y-127480000D01*
G36*
X89980000Y-127480000D02*
G01*
X89370000Y-127040000D01*
X89980000Y-126600000D01*
X89980000Y-127480000D01*
G37*
%TO.C,J6*%
X118340000Y-123130000D02*
X118340000Y-129870000D01*
X118340000Y-123130000D02*
X124120000Y-123130000D01*
X118340000Y-124250000D02*
X124120000Y-124250000D01*
X118340000Y-129350000D02*
X124120000Y-129350000D01*
X118340000Y-129870000D02*
X119660000Y-129870000D01*
X120260000Y-129870000D02*
X124120000Y-129870000D01*
X124120000Y-123130000D02*
X124120000Y-129870000D01*
X120400000Y-130480000D02*
X119520000Y-130480000D01*
X119960000Y-129870000D01*
X120400000Y-130480000D01*
G36*
X120400000Y-130480000D02*
G01*
X119520000Y-130480000D01*
X119960000Y-129870000D01*
X120400000Y-130480000D01*
G37*
%TO.C,TP13*%
X164000000Y-128500000D02*
G75*
G02*
X161000000Y-128500000I-1500000J0D01*
G01*
X161000000Y-128500000D02*
G75*
G02*
X164000000Y-128500000I1500000J0D01*
G01*
%TO.C,J11*%
X184780000Y-126980000D02*
X184780000Y-134220000D01*
X184780000Y-126980000D02*
X199720000Y-126980000D01*
X184780000Y-132600000D02*
X199720000Y-132600000D01*
X184780000Y-134220000D02*
X186700000Y-134220000D01*
X187300000Y-134220000D02*
X199720000Y-134220000D01*
X199720000Y-126980000D02*
X199720000Y-134220000D01*
X187440000Y-134830000D02*
X186560000Y-134830000D01*
X187000000Y-134220000D01*
X187440000Y-134830000D01*
G36*
X187440000Y-134830000D02*
G01*
X186560000Y-134830000D01*
X187000000Y-134220000D01*
X187440000Y-134830000D01*
G37*
%TO.C,TP3*%
X166000000Y-121000000D02*
G75*
G02*
X163000000Y-121000000I-1500000J0D01*
G01*
X163000000Y-121000000D02*
G75*
G02*
X166000000Y-121000000I1500000J0D01*
G01*
%TO.C,U1*%
X144317500Y-89682500D02*
X144317500Y-92132500D01*
X144317500Y-92132500D02*
X146647500Y-92132500D01*
X144647500Y-83952500D02*
X156587500Y-83952500D01*
X144647500Y-91802500D02*
X144647500Y-83952500D01*
X156587500Y-83952500D02*
X156587500Y-91802500D01*
X156587500Y-91802500D02*
X144647500Y-91802500D01*
%TO.C,J1*%
X153340000Y-138130000D02*
X153340000Y-144870000D01*
X153340000Y-138130000D02*
X159120000Y-138130000D01*
X153340000Y-139250000D02*
X159120000Y-139250000D01*
X153340000Y-144350000D02*
X159120000Y-144350000D01*
X153340000Y-144870000D02*
X154660000Y-144870000D01*
X155260000Y-144870000D02*
X159120000Y-144870000D01*
X159120000Y-138130000D02*
X159120000Y-144870000D01*
X155400000Y-145480000D02*
X154520000Y-145480000D01*
X154960000Y-144870000D01*
X155400000Y-145480000D01*
G36*
X155400000Y-145480000D02*
G01*
X154520000Y-145480000D01*
X154960000Y-144870000D01*
X155400000Y-145480000D01*
G37*
%TO.C,TP1*%
X169000000Y-82500000D02*
G75*
G02*
X166000000Y-82500000I-1500000J0D01*
G01*
X166000000Y-82500000D02*
G75*
G02*
X169000000Y-82500000I1500000J0D01*
G01*
%TO.C,TP12*%
X195000000Y-100500000D02*
G75*
G02*
X192000000Y-100500000I-1500000J0D01*
G01*
X192000000Y-100500000D02*
G75*
G02*
X195000000Y-100500000I1500000J0D01*
G01*
%TO.C,J8*%
X161380000Y-138130000D02*
X161380000Y-144870000D01*
X161380000Y-138130000D02*
X167160000Y-138130000D01*
X161380000Y-139250000D02*
X167160000Y-139250000D01*
X161380000Y-144350000D02*
X167160000Y-144350000D01*
X161380000Y-144870000D02*
X162700000Y-144870000D01*
X163300000Y-144870000D02*
X167160000Y-144870000D01*
X167160000Y-138130000D02*
X167160000Y-144870000D01*
X163440000Y-145480000D02*
X162560000Y-145480000D01*
X163000000Y-144870000D01*
X163440000Y-145480000D01*
G36*
X163440000Y-145480000D02*
G01*
X162560000Y-145480000D01*
X163000000Y-144870000D01*
X163440000Y-145480000D01*
G37*
%TO.C,J12*%
X150170000Y-110730000D02*
X150170000Y-118410000D01*
X150170000Y-110730000D02*
X152830000Y-110730000D01*
X150170000Y-118410000D02*
X152830000Y-118410000D01*
X151500000Y-108130000D02*
X152830000Y-108130000D01*
X152830000Y-108130000D02*
X152830000Y-109460000D01*
X152830000Y-110730000D02*
X152830000Y-118410000D01*
%TO.C,TP4*%
X128500000Y-125500000D02*
G75*
G02*
X125500000Y-125500000I-1500000J0D01*
G01*
X125500000Y-125500000D02*
G75*
G02*
X128500000Y-125500000I1500000J0D01*
G01*
%TO.C,J2*%
X111340000Y-82630000D02*
X111340000Y-89370000D01*
X111340000Y-82630000D02*
X117120000Y-82630000D01*
X111340000Y-83750000D02*
X117120000Y-83750000D01*
X111340000Y-88850000D02*
X117120000Y-88850000D01*
X111340000Y-89370000D02*
X112660000Y-89370000D01*
X113260000Y-89370000D02*
X117120000Y-89370000D01*
X117120000Y-82630000D02*
X117120000Y-89370000D01*
X113400000Y-89980000D02*
X112520000Y-89980000D01*
X112960000Y-89370000D01*
X113400000Y-89980000D01*
G36*
X113400000Y-89980000D02*
G01*
X112520000Y-89980000D01*
X112960000Y-89370000D01*
X113400000Y-89980000D01*
G37*
%TO.C,J13*%
X203670000Y-89850000D02*
X203670000Y-140770000D01*
X203670000Y-89850000D02*
X206270000Y-89850000D01*
X203670000Y-140770000D02*
X208870000Y-140770000D01*
X206270000Y-89850000D02*
X206270000Y-92450000D01*
X206270000Y-92450000D02*
X208870000Y-92450000D01*
X207540000Y-89850000D02*
X208870000Y-89850000D01*
X208870000Y-89850000D02*
X208870000Y-91180000D01*
X208870000Y-92450000D02*
X208870000Y-140770000D01*
%TO.C,TP6*%
X169500000Y-114000000D02*
G75*
G02*
X166500000Y-114000000I-1500000J0D01*
G01*
X166500000Y-114000000D02*
G75*
G02*
X169500000Y-114000000I1500000J0D01*
G01*
%TO.C,TP7*%
X111500000Y-124500000D02*
G75*
G02*
X108500000Y-124500000I-1500000J0D01*
G01*
X108500000Y-124500000D02*
G75*
G02*
X111500000Y-124500000I1500000J0D01*
G01*
%TO.C,TP10*%
X179000000Y-127500000D02*
G75*
G02*
X176000000Y-127500000I-1500000J0D01*
G01*
X176000000Y-127500000D02*
G75*
G02*
X179000000Y-127500000I1500000J0D01*
G01*
%TO.C,SW2*%
X126352500Y-142082500D02*
X126352500Y-143465500D01*
X126352500Y-142082500D02*
X127735500Y-142082500D01*
X126592500Y-142322500D02*
X126592500Y-149702500D01*
X126592500Y-142322500D02*
X136492500Y-142322500D01*
X126592500Y-149702500D02*
X136492500Y-149702500D01*
X130865833Y-144107500D02*
X130865833Y-145377500D01*
X130865833Y-146647500D02*
X130865833Y-147917500D01*
X136492500Y-142322500D02*
X136492500Y-149702500D01*
X129512500Y-144107500D02*
X130865833Y-144107500D01*
X130865833Y-145377500D01*
X129512500Y-145377500D01*
X129512500Y-144107500D01*
G36*
X129512500Y-144107500D02*
G01*
X130865833Y-144107500D01*
X130865833Y-145377500D01*
X129512500Y-145377500D01*
X129512500Y-144107500D01*
G37*
X129512500Y-144107500D02*
X133572500Y-144107500D01*
X133572500Y-145377500D01*
X129512500Y-145377500D01*
X129512500Y-144107500D01*
X129512500Y-146647500D02*
X130865833Y-146647500D01*
X130865833Y-147917500D01*
X129512500Y-147917500D01*
X129512500Y-146647500D01*
G36*
X129512500Y-146647500D02*
G01*
X130865833Y-146647500D01*
X130865833Y-147917500D01*
X129512500Y-147917500D01*
X129512500Y-146647500D01*
G37*
X129512500Y-146647500D02*
X133572500Y-146647500D01*
X133572500Y-147917500D01*
X129512500Y-147917500D01*
X129512500Y-146647500D01*
%TO.C,J7*%
X118840000Y-82630000D02*
X118840000Y-89370000D01*
X118840000Y-82630000D02*
X124620000Y-82630000D01*
X118840000Y-83750000D02*
X124620000Y-83750000D01*
X118840000Y-88850000D02*
X124620000Y-88850000D01*
X118840000Y-89370000D02*
X120160000Y-89370000D01*
X120760000Y-89370000D02*
X124620000Y-89370000D01*
X124620000Y-82630000D02*
X124620000Y-89370000D01*
X120900000Y-89980000D02*
X120020000Y-89980000D01*
X120460000Y-89370000D01*
X120900000Y-89980000D01*
G36*
X120900000Y-89980000D02*
G01*
X120020000Y-89980000D01*
X120460000Y-89370000D01*
X120900000Y-89980000D01*
G37*
%TO.C,J4*%
X167840000Y-124130000D02*
X167840000Y-130870000D01*
X167840000Y-124130000D02*
X173620000Y-124130000D01*
X167840000Y-125250000D02*
X173620000Y-125250000D01*
X167840000Y-130350000D02*
X173620000Y-130350000D01*
X167840000Y-130870000D02*
X169160000Y-130870000D01*
X169760000Y-130870000D02*
X173620000Y-130870000D01*
X173620000Y-124130000D02*
X173620000Y-130870000D01*
X169900000Y-131480000D02*
X169020000Y-131480000D01*
X169460000Y-130870000D01*
X169900000Y-131480000D01*
G36*
X169900000Y-131480000D02*
G01*
X169020000Y-131480000D01*
X169460000Y-130870000D01*
X169900000Y-131480000D01*
G37*
%TO.C,TP11*%
X149000000Y-101000000D02*
G75*
G02*
X146000000Y-101000000I-1500000J0D01*
G01*
X146000000Y-101000000D02*
G75*
G02*
X149000000Y-101000000I1500000J0D01*
G01*
%TO.C,J9*%
X101840000Y-139130000D02*
X101840000Y-145870000D01*
X101840000Y-139130000D02*
X107620000Y-139130000D01*
X101840000Y-140250000D02*
X107620000Y-140250000D01*
X101840000Y-145350000D02*
X107620000Y-145350000D01*
X101840000Y-145870000D02*
X103160000Y-145870000D01*
X103760000Y-145870000D02*
X107620000Y-145870000D01*
X107620000Y-139130000D02*
X107620000Y-145870000D01*
X103900000Y-146480000D02*
X103020000Y-146480000D01*
X103460000Y-145870000D01*
X103900000Y-146480000D01*
G36*
X103900000Y-146480000D02*
G01*
X103020000Y-146480000D01*
X103460000Y-145870000D01*
X103900000Y-146480000D01*
G37*
%TO.C,TP2*%
X197000000Y-94500000D02*
G75*
G02*
X194000000Y-94500000I-1500000J0D01*
G01*
X194000000Y-94500000D02*
G75*
G02*
X197000000Y-94500000I1500000J0D01*
G01*
%TO.C,TP8*%
X103500000Y-126500000D02*
G75*
G02*
X100500000Y-126500000I-1500000J0D01*
G01*
X100500000Y-126500000D02*
G75*
G02*
X103500000Y-126500000I1500000J0D01*
G01*
%TO.C,TP5*%
X131500000Y-92000000D02*
G75*
G02*
X128500000Y-92000000I-1500000J0D01*
G01*
X128500000Y-92000000D02*
G75*
G02*
X131500000Y-92000000I1500000J0D01*
G01*
%TD*%
M02*
