%TF.GenerationSoftware,KiCad,Pcbnew,9.0.2*%
%TF.CreationDate,2026-03-05T14:56:42+01:00*%
%TF.ProjectId,Lum_a,4c756de9-612e-46b6-9963-61645f706362,rev?*%
%TF.SameCoordinates,Original*%
%TF.FileFunction,Copper,L1,Top*%
%TF.FilePolarity,Positive*%
%FSLAX46Y46*%
G04 Gerber Fmt 4.6, Leading zero omitted, Abs format (unit mm)*
G04 Created by KiCad (PCBNEW 9.0.2) date 2026-03-05 14:56:42*
%MOMM*%
%LPD*%
G01*
G04 APERTURE LIST*
G04 Aperture macros list*
%AMRoundRect*
0 Rectangle with rounded corners*
0 $1 Rounding radius*
0 $2 $3 $4 $5 $6 $7 $8 $9 X,Y pos of 4 corners*
0 Add a 4 corners polygon primitive as box body*
4,1,4,$2,$3,$4,$5,$6,$7,$8,$9,$2,$3,0*
0 Add four circle primitives for the rounded corners*
1,1,$1+$1,$2,$3*
1,1,$1+$1,$4,$5*
1,1,$1+$1,$6,$7*
1,1,$1+$1,$8,$9*
0 Add four rect primitives between the rounded corners*
20,1,$1+$1,$2,$3,$4,$5,0*
20,1,$1+$1,$4,$5,$6,$7,0*
20,1,$1+$1,$6,$7,$8,$9,0*
20,1,$1+$1,$8,$9,$2,$3,0*%
G04 Aperture macros list end*
%TA.AperFunction,ComponentPad*%
%ADD10O,1.600000X2.600000*%
%TD*%
%TA.AperFunction,ComponentPad*%
%ADD11RoundRect,0.250000X0.550000X-1.050000X0.550000X1.050000X-0.550000X1.050000X-0.550000X-1.050000X0*%
%TD*%
%TA.AperFunction,ComponentPad*%
%ADD12RoundRect,0.250000X-0.550000X-0.550000X0.550000X-0.550000X0.550000X0.550000X-0.550000X0.550000X0*%
%TD*%
%TA.AperFunction,ComponentPad*%
%ADD13C,1.600000*%
%TD*%
%TA.AperFunction,ComponentPad*%
%ADD14RoundRect,0.250001X-0.799999X-0.799999X0.799999X-0.799999X0.799999X0.799999X-0.799999X0.799999X0*%
%TD*%
%TA.AperFunction,ComponentPad*%
%ADD15C,2.100000*%
%TD*%
%TA.AperFunction,ComponentPad*%
%ADD16C,2.000000*%
%TD*%
%TA.AperFunction,ComponentPad*%
%ADD17RoundRect,0.250001X0.799999X-0.799999X0.799999X0.799999X-0.799999X0.799999X-0.799999X-0.799999X0*%
%TD*%
%TA.AperFunction,ComponentPad*%
%ADD18RoundRect,0.250001X-0.949999X-0.949999X0.949999X-0.949999X0.949999X0.949999X-0.949999X0.949999X0*%
%TD*%
%TA.AperFunction,ComponentPad*%
%ADD19C,2.400000*%
%TD*%
%TA.AperFunction,ComponentPad*%
%ADD20R,1.500000X2.500000*%
%TD*%
%TA.AperFunction,ComponentPad*%
%ADD21O,1.500000X2.500000*%
%TD*%
%TA.AperFunction,ComponentPad*%
%ADD22R,1.700000X1.700000*%
%TD*%
%TA.AperFunction,ComponentPad*%
%ADD23C,1.700000*%
%TD*%
%TA.AperFunction,ViaPad*%
%ADD24C,2.000000*%
%TD*%
%TA.AperFunction,Conductor*%
%ADD25C,1.000000*%
%TD*%
%TA.AperFunction,Conductor*%
%ADD26C,0.500000*%
%TD*%
G04 APERTURE END LIST*
D10*
%TO.P,A1,28,VBAT*%
%TO.N,/Micro-Controleur/+5V ESP32*%
X105610000Y-101032500D03*
%TO.P,A1,27,EN*%
%TO.N,unconnected-(A1-EN-Pad27)*%
X108150000Y-101032500D03*
%TO.P,A1,26,USB*%
%TO.N,unconnected-(A1-USB-Pad26)*%
X110690000Y-101032500D03*
%TO.P,A1,25,A12/IO13*%
%TO.N,unconnected-(A1-A12{slash}IO13-Pad25)*%
X113230000Y-101032500D03*
%TO.P,A1,24,A11/IO12*%
%TO.N,/VEolienne*%
X115770000Y-101032500D03*
%TO.P,A1,23,A10/IO27*%
%TO.N,unconnected-(A1-A10{slash}IO27-Pad23)*%
X118310000Y-101032500D03*
%TO.P,A1,22,A9/IO33*%
%TO.N,unconnected-(A1-A9{slash}IO33-Pad22)*%
X120850000Y-101032500D03*
%TO.P,A1,21,A8/IO15*%
%TO.N,unconnected-(A1-A8{slash}IO15-Pad21)*%
X123390000Y-101032500D03*
%TO.P,A1,20,A7/IO32*%
%TO.N,/VLibre*%
X125930000Y-101032500D03*
%TO.P,A1,19,A6/IO14*%
%TO.N,/VPS 2*%
X128470000Y-101032500D03*
%TO.P,A1,18,SCL/IO22*%
%TO.N,/Capteur de Courant/SCL*%
X131010000Y-101032500D03*
%TO.P,A1,17,SDA/IO23*%
%TO.N,/Capteur de Courant/SDA*%
X133550000Y-101032500D03*
%TO.P,A1,16,IO21*%
%TO.N,unconnected-(A1-IO21-Pad16)*%
X133550000Y-120752500D03*
%TO.P,A1,15,TX/IO17*%
%TO.N,/Micro-Controleur/TX*%
X131010000Y-120752500D03*
%TO.P,A1,14,RX/IO16*%
%TO.N,/Micro-Controleur/RX*%
X128470000Y-120752500D03*
%TO.P,A1,13,MISO/IO19*%
%TO.N,unconnected-(A1-MISO{slash}IO19-Pad13)*%
X125930000Y-120752500D03*
%TO.P,A1,12,MOSI/IO18*%
%TO.N,unconnected-(A1-MOSI{slash}IO18-Pad12)*%
X123390000Y-120752500D03*
%TO.P,A1,11,SCK/IO5*%
%TO.N,unconnected-(A1-SCK{slash}IO5-Pad11)*%
X120850000Y-120752500D03*
%TO.P,A1,10,IO4/A5*%
%TO.N,unconnected-(A1-IO4{slash}A5-Pad10)*%
X118310000Y-120752500D03*
%TO.P,A1,9,IO36/A4*%
%TO.N,unconnected-(A1-IO36{slash}A4-Pad9)*%
X115770000Y-120752500D03*
%TO.P,A1,8,I39/A3*%
%TO.N,unconnected-(A1-I39{slash}A3-Pad8)*%
X113230000Y-120752500D03*
%TO.P,A1,7,I34/A2*%
%TO.N,/VPS 1*%
X110690000Y-120752500D03*
%TO.P,A1,6,DAC1/A1*%
%TO.N,/Capteur analogique/A1*%
X108150000Y-120752500D03*
%TO.P,A1,5,DAC2/A0*%
%TO.N,/VBatt*%
X105610000Y-120752500D03*
%TO.P,A1,4,GND*%
%TO.N,GND*%
X103070000Y-120752500D03*
%TO.P,A1,3,NC*%
%TO.N,unconnected-(A1-NC-Pad3)*%
X100530000Y-120752500D03*
%TO.P,A1,2,3V3*%
%TO.N,unconnected-(A1-3V3-Pad2)*%
X97990000Y-120752500D03*
D11*
%TO.P,A1,1,~{RESET}*%
%TO.N,unconnected-(A1-~{RESET}-Pad1)*%
X95450000Y-120752500D03*
%TD*%
D12*
%TO.P,SW3,1*%
%TO.N,+5V*%
X88380000Y-140500000D03*
D13*
%TO.P,SW3,2*%
X88380000Y-143040000D03*
%TO.P,SW3,3*%
%TO.N,Net-(U5-A1)*%
X96000000Y-143040000D03*
%TO.P,SW3,4*%
%TO.N,Net-(U5-A0)*%
X96000000Y-140500000D03*
%TD*%
D12*
%TO.P,SW1,1*%
%TO.N,+5V*%
X109732500Y-143242500D03*
D13*
%TO.P,SW1,2*%
X109732500Y-145782500D03*
%TO.P,SW1,3*%
%TO.N,Net-(U3-A1)*%
X117352500Y-145782500D03*
%TO.P,SW1,4*%
%TO.N,Net-(U3-A0)*%
X117352500Y-143242500D03*
%TD*%
D14*
%TO.P,J3,1,Pin_1*%
%TO.N,Net-(J3-Pin_1)*%
X127960000Y-86000000D03*
D15*
%TO.P,J3,2,Pin_2*%
%TO.N,GND*%
X130500000Y-86000000D03*
%TD*%
D14*
%TO.P,J5,1,Pin_1*%
%TO.N,/ALIM/Test 12V*%
X162500000Y-88500000D03*
D15*
%TO.P,J5,2,Pin_2*%
%TO.N,GND*%
X165040000Y-88500000D03*
%TD*%
D16*
%TO.P,TP9,1,1*%
%TO.N,/VEolienne*%
X101000000Y-93000000D03*
%TD*%
D17*
%TO.P,J10,1,Pin_1*%
%TO.N,Net-(J10-Pin_1)*%
X86000000Y-127040000D03*
D15*
%TO.P,J10,2,Pin_2*%
%TO.N,Net-(J10-Pin_2)*%
X86000000Y-124500000D03*
%TD*%
D14*
%TO.P,J6,1,Pin_1*%
%TO.N,Net-(J6-Pin_1)*%
X119960000Y-126500000D03*
D15*
%TO.P,J6,2,Pin_2*%
%TO.N,GND*%
X122500000Y-126500000D03*
%TD*%
D16*
%TO.P,TP13,1,1*%
%TO.N,/Capteur analogique/A1*%
X162500000Y-128500000D03*
%TD*%
D18*
%TO.P,J11,1,Pin_1*%
%TO.N,/Capteur de Courant/SDA*%
X187000000Y-130500000D03*
D19*
%TO.P,J11,2,Pin_2*%
%TO.N,/Capteur de Courant/SCL*%
X190500000Y-130500000D03*
%TO.P,J11,3,Pin_3*%
%TO.N,GND*%
X194000000Y-130500000D03*
%TO.P,J11,4,Pin_4*%
%TO.N,+5V*%
X197500000Y-130500000D03*
%TD*%
D16*
%TO.P,TP3,1,1*%
%TO.N,/Micro-Controleur/RX*%
X164500000Y-121000000D03*
%TD*%
D20*
%TO.P,U1,1,Vin*%
%TO.N,/ALIM/Test 12V*%
X148067500Y-89682500D03*
D21*
%TO.P,U1,2,GND*%
%TO.N,GND*%
X150607500Y-89682500D03*
%TO.P,U1,3,Vout*%
%TO.N,+5V*%
X153147500Y-89682500D03*
%TD*%
D14*
%TO.P,J1,1,Pin_1*%
%TO.N,Net-(J1-Pin_1)*%
X154960000Y-141500000D03*
D15*
%TO.P,J1,2,Pin_2*%
%TO.N,Net-(J1-Pin_2)*%
X157500000Y-141500000D03*
%TD*%
D16*
%TO.P,TP1,1,1*%
%TO.N,/ALIM/Test 12V*%
X167500000Y-82500000D03*
%TD*%
%TO.P,TP12,1,1*%
%TO.N,/Capteur de Courant/SCL*%
X193500000Y-100500000D03*
%TD*%
D14*
%TO.P,J8,1,Pin_1*%
%TO.N,Net-(J8-Pin_1)*%
X163000000Y-141500000D03*
D15*
%TO.P,J8,2,Pin_2*%
%TO.N,Net-(J8-Pin_2)*%
X165540000Y-141500000D03*
%TD*%
D22*
%TO.P,J12,1,Pin_1*%
%TO.N,/Capteur de Courant/SDA*%
X151500000Y-109460000D03*
D23*
%TO.P,J12,2,Pin_2*%
%TO.N,/Capteur de Courant/SCL*%
X151500000Y-112000000D03*
%TO.P,J12,3,Pin_3*%
%TO.N,GND*%
X151500000Y-114540000D03*
%TO.P,J12,4,Pin_4*%
%TO.N,+5V*%
X151500000Y-117080000D03*
%TD*%
D16*
%TO.P,TP4,1,1*%
%TO.N,/Micro-Controleur/TX*%
X127000000Y-125500000D03*
%TD*%
D14*
%TO.P,J2,1,Pin_1*%
%TO.N,Net-(D2-A)*%
X112960000Y-86000000D03*
D15*
%TO.P,J2,2,Pin_2*%
%TO.N,GND*%
X115500000Y-86000000D03*
%TD*%
D22*
%TO.P,J13,1,Pin_1*%
%TO.N,unconnected-(J13-Pin_1-Pad1)*%
X207540000Y-91180000D03*
D23*
%TO.P,J13,2,Pin_2*%
%TO.N,+5V*%
X205000000Y-91180000D03*
%TO.P,J13,3,Pin_3*%
%TO.N,unconnected-(J13-Pin_3-Pad3)*%
X207540000Y-93720000D03*
%TO.P,J13,4,Pin_4*%
%TO.N,unconnected-(J13-Pin_4-Pad4)*%
X205000000Y-93720000D03*
%TO.P,J13,5,Pin_5*%
%TO.N,unconnected-(J13-Pin_5-Pad5)*%
X207540000Y-96260000D03*
%TO.P,J13,6,Pin_6*%
%TO.N,GND*%
X205000000Y-96260000D03*
%TO.P,J13,7,Pin_7*%
%TO.N,unconnected-(J13-Pin_7-Pad7)*%
X207540000Y-98800000D03*
%TO.P,J13,8,Pin_8*%
%TO.N,/Micro-Controleur/RX*%
X205000000Y-98800000D03*
%TO.P,J13,9,Pin_9*%
%TO.N,unconnected-(J13-Pin_9-Pad9)*%
X207540000Y-101340000D03*
%TO.P,J13,10,Pin_10*%
%TO.N,/Micro-Controleur/TX*%
X205000000Y-101340000D03*
%TO.P,J13,11,Pin_11*%
%TO.N,unconnected-(J13-Pin_11-Pad11)*%
X207540000Y-103880000D03*
%TO.P,J13,12,Pin_12*%
%TO.N,unconnected-(J13-Pin_12-Pad12)*%
X205000000Y-103880000D03*
%TO.P,J13,13,Pin_13*%
%TO.N,unconnected-(J13-Pin_13-Pad13)*%
X207540000Y-106420000D03*
%TO.P,J13,14,Pin_14*%
%TO.N,GND*%
X205000000Y-106420000D03*
%TO.P,J13,15,Pin_15*%
%TO.N,unconnected-(J13-Pin_15-Pad15)*%
X207540000Y-108960000D03*
%TO.P,J13,16,Pin_16*%
%TO.N,unconnected-(J13-Pin_16-Pad16)*%
X205000000Y-108960000D03*
%TO.P,J13,17,Pin_17*%
%TO.N,unconnected-(J13-Pin_17-Pad17)*%
X207540000Y-111500000D03*
%TO.P,J13,18,Pin_18*%
%TO.N,unconnected-(J13-Pin_18-Pad18)*%
X205000000Y-111500000D03*
%TO.P,J13,19,Pin_19*%
%TO.N,unconnected-(J13-Pin_19-Pad19)*%
X207540000Y-114040000D03*
%TO.P,J13,20,Pin_20*%
%TO.N,unconnected-(J13-Pin_20-Pad20)*%
X205000000Y-114040000D03*
%TO.P,J13,21,Pin_21*%
%TO.N,unconnected-(J13-Pin_21-Pad21)*%
X207540000Y-116580000D03*
%TO.P,J13,22,Pin_22*%
%TO.N,unconnected-(J13-Pin_22-Pad22)*%
X205000000Y-116580000D03*
%TO.P,J13,23,Pin_23*%
%TO.N,unconnected-(J13-Pin_23-Pad23)*%
X207540000Y-119120000D03*
%TO.P,J13,24,Pin_24*%
%TO.N,unconnected-(J13-Pin_24-Pad24)*%
X205000000Y-119120000D03*
%TO.P,J13,25,Pin_25*%
%TO.N,unconnected-(J13-Pin_25-Pad25)*%
X207540000Y-121660000D03*
%TO.P,J13,26,Pin_26*%
%TO.N,unconnected-(J13-Pin_26-Pad26)*%
X205000000Y-121660000D03*
%TO.P,J13,27,Pin_27*%
%TO.N,unconnected-(J13-Pin_27-Pad27)*%
X207540000Y-124200000D03*
%TO.P,J13,28,Pin_28*%
%TO.N,unconnected-(J13-Pin_28-Pad28)*%
X205000000Y-124200000D03*
%TO.P,J13,29,Pin_29*%
%TO.N,unconnected-(J13-Pin_29-Pad29)*%
X207540000Y-126740000D03*
%TO.P,J13,30,Pin_30*%
%TO.N,unconnected-(J13-Pin_30-Pad30)*%
X205000000Y-126740000D03*
%TO.P,J13,31,Pin_31*%
%TO.N,unconnected-(J13-Pin_31-Pad31)*%
X207540000Y-129280000D03*
%TO.P,J13,32,Pin_32*%
%TO.N,unconnected-(J13-Pin_32-Pad32)*%
X205000000Y-129280000D03*
%TO.P,J13,33,Pin_33*%
%TO.N,unconnected-(J13-Pin_33-Pad33)*%
X207540000Y-131820000D03*
%TO.P,J13,34,Pin_34*%
%TO.N,unconnected-(J13-Pin_34-Pad34)*%
X205000000Y-131820000D03*
%TO.P,J13,35,Pin_35*%
%TO.N,unconnected-(J13-Pin_35-Pad35)*%
X207540000Y-134360000D03*
%TO.P,J13,36,Pin_36*%
%TO.N,unconnected-(J13-Pin_36-Pad36)*%
X205000000Y-134360000D03*
%TO.P,J13,37,Pin_37*%
%TO.N,unconnected-(J13-Pin_37-Pad37)*%
X207540000Y-136900000D03*
%TO.P,J13,38,Pin_38*%
%TO.N,unconnected-(J13-Pin_38-Pad38)*%
X205000000Y-136900000D03*
%TO.P,J13,39,Pin_39*%
%TO.N,GND*%
X207540000Y-139440000D03*
%TO.P,J13,40,Pin_40*%
%TO.N,unconnected-(J13-Pin_40-Pad40)*%
X205000000Y-139440000D03*
%TD*%
D16*
%TO.P,TP6,1,1*%
%TO.N,/VPS 2*%
X168000000Y-114000000D03*
%TD*%
%TO.P,TP7,1,1*%
%TO.N,/VPS 1*%
X110000000Y-124500000D03*
%TD*%
%TO.P,TP10,1,1*%
%TO.N,GND*%
X177500000Y-127500000D03*
%TD*%
D12*
%TO.P,SW2,1*%
%TO.N,+5V*%
X127732500Y-144742500D03*
D13*
%TO.P,SW2,2*%
X127732500Y-147282500D03*
%TO.P,SW2,3*%
%TO.N,Net-(U4-A1)*%
X135352500Y-147282500D03*
%TO.P,SW2,4*%
%TO.N,Net-(U4-A0)*%
X135352500Y-144742500D03*
%TD*%
D14*
%TO.P,J7,1,Pin_1*%
%TO.N,Net-(J7-Pin_1)*%
X120460000Y-86000000D03*
D15*
%TO.P,J7,2,Pin_2*%
%TO.N,GND*%
X123000000Y-86000000D03*
%TD*%
D14*
%TO.P,J4,1,Pin_1*%
%TO.N,Net-(J4-Pin_1)*%
X169460000Y-127500000D03*
D15*
%TO.P,J4,2,Pin_2*%
%TO.N,GND*%
X172000000Y-127500000D03*
%TD*%
D16*
%TO.P,TP11,1,1*%
%TO.N,/Capteur de Courant/SDA*%
X147500000Y-101000000D03*
%TD*%
D14*
%TO.P,J9,1,Pin_1*%
%TO.N,Net-(J9-Pin_1)*%
X103460000Y-142500000D03*
D15*
%TO.P,J9,2,Pin_2*%
%TO.N,Net-(J9-Pin_2)*%
X106000000Y-142500000D03*
%TD*%
D16*
%TO.P,TP2,1,1*%
%TO.N,+5V*%
X195500000Y-94500000D03*
%TD*%
%TO.P,TP8,1,1*%
%TO.N,/VBatt*%
X102000000Y-126500000D03*
%TD*%
%TO.P,TP5,1,1*%
%TO.N,/VLibre*%
X130000000Y-92000000D03*
%TD*%
D24*
%TO.N,GND*%
X143824803Y-128824803D03*
X202500000Y-99000000D03*
X202500000Y-106500000D03*
X124000000Y-132000000D03*
X109000000Y-132500000D03*
X143000000Y-115500000D03*
X148000000Y-115500000D03*
X98000000Y-132500000D03*
X177000000Y-143000000D03*
X177000000Y-132000000D03*
%TO.N,/Capteur de Courant/SDA*%
X151500000Y-95500000D03*
X139500000Y-126000000D03*
X187000000Y-95500000D03*
X141000000Y-103500000D03*
%TO.N,+5V*%
X153000000Y-127500000D03*
X153500000Y-104000000D03*
%TD*%
D25*
%TO.N,+5V*%
X153500000Y-127000000D02*
X153500000Y-104000000D01*
X153000000Y-127500000D02*
X153500000Y-127000000D01*
D26*
%TO.N,GND*%
X143824803Y-128824803D02*
X142521000Y-127521000D01*
X142521000Y-127521000D02*
X141630019Y-127521000D01*
X141630019Y-127521000D02*
X143000000Y-126151019D01*
X202500000Y-106500000D02*
X202500000Y-99000000D01*
%TO.N,/Capteur de Courant/SDA*%
X141000000Y-103500000D02*
X141000000Y-124500000D01*
X141000000Y-124500000D02*
X139500000Y-126000000D01*
%TO.N,GND*%
X124000000Y-130117000D02*
X124000000Y-132000000D01*
X124000000Y-127521000D02*
X124000000Y-130000000D01*
X124000000Y-127521000D02*
X123521000Y-127521000D01*
X126000000Y-127521000D02*
X125979000Y-127521000D01*
X126000000Y-127521000D02*
X124000000Y-127521000D01*
X98000000Y-132500000D02*
X109000000Y-132500000D01*
X177000000Y-143000000D02*
X177000000Y-132000000D01*
X123521000Y-127521000D02*
X122500000Y-126500000D01*
X143000000Y-115500000D02*
X143000000Y-126151019D01*
X141630019Y-127521000D02*
X126000000Y-127521000D01*
X148000000Y-115500000D02*
X143000000Y-115500000D01*
%TO.N,/Capteur de Courant/SDA*%
X187000000Y-95500000D02*
X186979000Y-95479000D01*
X151500000Y-95500000D02*
X187000000Y-95500000D01*
%TD*%
M02*
